<?xml version="1.0" encoding="UTF-8" standalone="no"?>
<!DOCTYPE svg PUBLIC "-//W3C//DTD SVG 1.1//EN"
 "http://www.w3.org/Graphics/SVG/1.1/DTD/svg11.dtd">
<!-- Generated by graphviz version 14.1.5 (20260411.2331)
 -->
<!-- Title: YOLO_DetectionModel Pages: 1 -->
<svg width="6638pt" height="275pt"
 viewBox="0.00 0.00 6638.00 275.00" xmlns="http://www.w3.org/2000/svg" xmlns:xlink="http://www.w3.org/1999/xlink">
<g id="graph0" class="graph" transform="scale(1 1) rotate(0) translate(4 271.02)">
<title>YOLO_DetectionModel</title>
<polygon fill="white" stroke="none" points="-4,4 -4,-271.02 6633.95,-271.02 6633.95,4 -4,4"/>
<g id="clust1" class="cluster">
<title>cluster_backbone</title>
<path fill="white" stroke="#2563eb" d="M220.6,-13.02C220.6,-13.02 3072.5,-13.02 3072.5,-13.02 3078.5,-13.02 3084.5,-19.02 3084.5,-25.02 3084.5,-25.02 3084.5,-90.03 3084.5,-90.03 3084.5,-96.03 3078.5,-102.03 3072.5,-102.03 3072.5,-102.03 220.6,-102.03 220.6,-102.03 214.6,-102.03 208.6,-96.03 208.6,-90.03 208.6,-90.03 208.6,-25.03 208.6,-25.03 208.6,-19.03 214.6,-13.02 220.6,-13.02"/>
<text xml:space="preserve" text-anchor="middle" x="1646.55" y="-80.93" font-family="Times New Roman,serif" font-size="18.00">Backbone</text>
</g>
<g id="clust2" class="cluster">
<title>cluster_neck</title>
<path fill="white" stroke="#16a34a" d="M3152.5,-13.02C3152.5,-13.02 5881.4,-13.02 5881.4,-13.02 5887.4,-13.02 5893.4,-19.02 5893.4,-25.02 5893.4,-25.02 5893.4,-128.03 5893.4,-128.03 5893.4,-134.03 5887.4,-140.03 5881.4,-140.03 5881.4,-140.03 3152.5,-140.03 3152.5,-140.03 3146.5,-140.03 3140.5,-134.03 3140.5,-128.03 3140.5,-128.03 3140.5,-25.03 3140.5,-25.03 3140.5,-19.03 3146.5,-13.02 3152.5,-13.02"/>
<text xml:space="preserve" text-anchor="middle" x="4516.95" y="-118.93" font-family="Times New Roman,serif" font-size="18.00">FPN / PAN Neck</text>
</g>
<g id="clust3" class="cluster">
<title>cluster_head</title>
<path fill="white" stroke="#dc2626" d="M5961.4,-10.02C5961.4,-10.02 6609.95,-10.02 6609.95,-10.02 6615.95,-10.02 6621.95,-16.02 6621.95,-22.02 6621.95,-22.02 6621.95,-247.02 6621.95,-247.02 6621.95,-253.02 6615.95,-259.02 6609.95,-259.02 6609.95,-259.02 5961.4,-259.02 5961.4,-259.02 5955.4,-259.02 5949.4,-253.02 5949.4,-247.02 5949.4,-247.02 5949.4,-22.03 5949.4,-22.03 5949.4,-16.03 5955.4,-10.02 5961.4,-10.02"/>
<text xml:space="preserve" text-anchor="middle" x="6285.67" y="-237.93" font-family="Times New Roman,serif" font-size="18.00">Detection Head</text>
</g>
<!-- input -->
<g id="node1" class="node">
<title>input</title>
<path fill="#f3f4f6" stroke="black" d="M12,-21.5C12,-21.5 132.6,-21.5 132.6,-21.5 138.6,-21.5 144.6,-27.5 144.6,-33.5 144.6,-33.5 144.6,-52.55 144.6,-52.55 144.6,-58.55 138.6,-64.55 132.6,-64.55 132.6,-64.55 12,-64.55 12,-64.55 6,-64.55 0,-58.55 0,-52.55 0,-52.55 0,-33.5 0,-33.5 0,-27.5 6,-21.5 12,-21.5"/>
<text xml:space="preserve" text-anchor="middle" x="27.53" y="-38.75" font-family="Helvetica,sans-Serif" font-size="12.00">Input</text>
<polyline fill="none" stroke="black" points="55.05,-21.5 55.05,-64.55"/>
<text xml:space="preserve" text-anchor="middle" x="99.83" y="-38.75" font-family="Helvetica,sans-Serif" font-size="12.00">640×640×3</text>
</g>
<!-- b1 -->
<g id="node2" class="node">
<title>b1</title>
<path fill="#dbeafe" stroke="black" d="M228.6,-21.5C228.6,-21.5 396,-21.5 396,-21.5 402,-21.5 408,-27.5 408,-33.5 408,-33.5 408,-52.55 408,-52.55 408,-58.55 402,-64.55 396,-64.55 396,-64.55 228.6,-64.55 228.6,-64.55 222.6,-64.55 216.6,-58.55 216.6,-52.55 216.6,-52.55 216.6,-33.5 216.6,-33.5 216.6,-27.5 222.6,-21.5 228.6,-21.5"/>
<text xml:space="preserve" text-anchor="middle" x="245.25" y="-38.75" font-family="Helvetica,sans-Serif" font-size="12.00">Conv</text>
<polyline fill="none" stroke="black" points="273.9,-21.5 273.9,-64.55"/>
<text xml:space="preserve" text-anchor="middle" x="302.93" y="-38.75" font-family="Helvetica,sans-Serif" font-size="12.00">32 ch</text>
<polyline fill="none" stroke="black" points="331.95,-21.5 331.95,-64.55"/>
<text xml:space="preserve" text-anchor="middle" x="369.98" y="-38.75" font-family="Helvetica,sans-Serif" font-size="12.00">320×320</text>
</g>
<!-- input&#45;&gt;b1 -->
<g id="edge1" class="edge">
<title>input&#45;&gt;b1</title>
<path fill="none" stroke="#555555" stroke-width="1.8" d="M144.96,-43.02C144.96,-43.02 205.66,-43.02 205.66,-43.02"/>
<polygon fill="#555555" stroke="#555555" stroke-width="1.8" points="205.66,-45.83 213.66,-43.03 205.66,-40.23 205.66,-45.83"/>
</g>
<!-- b2 -->
<g id="node3" class="node">
<title>b2</title>
<path fill="#dbeafe" stroke="black" d="M492,-21.5C492,-21.5 659.4,-21.5 659.4,-21.5 665.4,-21.5 671.4,-27.5 671.4,-33.5 671.4,-33.5 671.4,-52.55 671.4,-52.55 671.4,-58.55 665.4,-64.55 659.4,-64.55 659.4,-64.55 492,-64.55 492,-64.55 486,-64.55 480,-58.55 480,-52.55 480,-52.55 480,-33.5 480,-33.5 480,-27.5 486,-21.5 492,-21.5"/>
<text xml:space="preserve" text-anchor="middle" x="508.65" y="-38.75" font-family="Helvetica,sans-Serif" font-size="12.00">Conv</text>
<polyline fill="none" stroke="black" points="537.3,-21.5 537.3,-64.55"/>
<text xml:space="preserve" text-anchor="middle" x="566.32" y="-38.75" font-family="Helvetica,sans-Serif" font-size="12.00">64 ch</text>
<polyline fill="none" stroke="black" points="595.35,-21.5 595.35,-64.55"/>
<text xml:space="preserve" text-anchor="middle" x="633.37" y="-38.75" font-family="Helvetica,sans-Serif" font-size="12.00">160×160</text>
</g>
<!-- b1&#45;&gt;b2 -->
<g id="edge2" class="edge">
<title>b1&#45;&gt;b2</title>
<path fill="none" stroke="#555555" stroke-width="1.8" d="M408.14,-43.02C408.14,-43.02 469.21,-43.02 469.21,-43.02"/>
<polygon fill="#555555" stroke="#555555" stroke-width="1.8" points="469.21,-45.83 477.21,-43.03 469.21,-40.23 469.21,-45.83"/>
</g>
<!-- b3 -->
<g id="node4" class="node">
<title>b3</title>
<path fill="#bfdbfe" stroke="black" d="M755.4,-21.5C755.4,-21.5 946.05,-21.5 946.05,-21.5 952.05,-21.5 958.05,-27.5 958.05,-33.5 958.05,-33.5 958.05,-52.55 958.05,-52.55 958.05,-58.55 952.05,-64.55 946.05,-64.55 946.05,-64.55 755.4,-64.55 755.4,-64.55 749.4,-64.55 743.4,-58.55 743.4,-52.55 743.4,-52.55 743.4,-33.5 743.4,-33.5 743.4,-27.5 749.4,-21.5 755.4,-21.5"/>
<text xml:space="preserve" text-anchor="middle" x="780.3" y="-38.75" font-family="Helvetica,sans-Serif" font-size="12.00">C3k2 ×3</text>
<polyline fill="none" stroke="black" points="817.2,-21.5 817.2,-64.55"/>
<text xml:space="preserve" text-anchor="middle" x="849.6" y="-38.75" font-family="Helvetica,sans-Serif" font-size="12.00">128 ch</text>
<polyline fill="none" stroke="black" points="882,-21.5 882,-64.55"/>
<text xml:space="preserve" text-anchor="middle" x="920.02" y="-38.75" font-family="Helvetica,sans-Serif" font-size="12.00">160×160</text>
</g>
<!-- b2&#45;&gt;b3 -->
<g id="edge3" class="edge">
<title>b2&#45;&gt;b3</title>
<path fill="none" stroke="#555555" stroke-width="1.8" d="M671.89,-43.02C671.89,-43.02 732.59,-43.02 732.59,-43.02"/>
<polygon fill="#555555" stroke="#555555" stroke-width="1.8" points="732.59,-45.83 740.59,-43.03 732.59,-40.23 732.59,-45.83"/>
</g>
<!-- b4 -->
<g id="node5" class="node">
<title>b4</title>
<path fill="#dbeafe" stroke="black" d="M1042.05,-21.5C1042.05,-21.5 1202.7,-21.5 1202.7,-21.5 1208.7,-21.5 1214.7,-27.5 1214.7,-33.5 1214.7,-33.5 1214.7,-52.55 1214.7,-52.55 1214.7,-58.55 1208.7,-64.55 1202.7,-64.55 1202.7,-64.55 1042.05,-64.55 1042.05,-64.55 1036.05,-64.55 1030.05,-58.55 1030.05,-52.55 1030.05,-52.55 1030.05,-33.5 1030.05,-33.5 1030.05,-27.5 1036.05,-21.5 1042.05,-21.5"/>
<text xml:space="preserve" text-anchor="middle" x="1058.7" y="-38.75" font-family="Helvetica,sans-Serif" font-size="12.00">Conv</text>
<polyline fill="none" stroke="black" points="1087.35,-21.5 1087.35,-64.55"/>
<text xml:space="preserve" text-anchor="middle" x="1119.75" y="-38.75" font-family="Helvetica,sans-Serif" font-size="12.00">128 ch</text>
<polyline fill="none" stroke="black" points="1152.15,-21.5 1152.15,-64.55"/>
<text xml:space="preserve" text-anchor="middle" x="1183.42" y="-38.75" font-family="Helvetica,sans-Serif" font-size="12.00">80×80</text>
</g>
<!-- b3&#45;&gt;b4 -->
<g id="edge4" class="edge">
<title>b3&#45;&gt;b4</title>
<path fill="none" stroke="#555555" stroke-width="1.8" d="M958.48,-43.02C958.48,-43.02 1018.94,-43.02 1018.94,-43.02"/>
<polygon fill="#555555" stroke="#555555" stroke-width="1.8" points="1018.94,-45.83 1026.94,-43.03 1018.94,-40.23 1018.94,-45.83"/>
</g>
<!-- p3 -->
<g id="node6" class="node">
<title>p3</title>
<path fill="#93c5fd" stroke="black" d="M1298.7,-21.5C1298.7,-21.5 1475.85,-21.5 1475.85,-21.5 1481.85,-21.5 1487.85,-27.5 1487.85,-33.5 1487.85,-33.5 1487.85,-52.55 1487.85,-52.55 1487.85,-58.55 1481.85,-64.55 1475.85,-64.55 1475.85,-64.55 1298.7,-64.55 1298.7,-64.55 1292.7,-64.55 1286.7,-58.55 1286.7,-52.55 1286.7,-52.55 1286.7,-33.5 1286.7,-33.5 1286.7,-27.5 1292.7,-21.5 1298.7,-21.5"/>
<text xml:space="preserve" text-anchor="middle" x="1323.6" y="-38.75" font-family="Helvetica,sans-Serif" font-size="12.00">C3k2 ×6</text>
<polyline fill="none" stroke="black" points="1360.5,-21.5 1360.5,-64.55"/>
<text xml:space="preserve" text-anchor="middle" x="1392.9" y="-38.75" font-family="Helvetica,sans-Serif" font-size="12.00">256 ch</text>
<polyline fill="none" stroke="black" points="1425.3,-21.5 1425.3,-64.55"/>
<text xml:space="preserve" text-anchor="middle" x="1456.57" y="-38.75" font-family="Helvetica,sans-Serif" font-size="12.00">80×80</text>
</g>
<!-- b4&#45;&gt;p3 -->
<g id="edge5" class="edge">
<title>b4&#45;&gt;p3</title>
<path fill="none" stroke="#555555" stroke-width="1.8" d="M1215.02,-43.02C1215.02,-43.02 1275.83,-43.02 1275.83,-43.02"/>
<polygon fill="#555555" stroke="#555555" stroke-width="1.8" points="1275.83,-45.83 1283.83,-43.03 1275.83,-40.23 1275.83,-45.83"/>
</g>
<!-- b6 -->
<g id="node7" class="node">
<title>b6</title>
<path fill="#dbeafe" stroke="black" d="M1571.85,-21.5C1571.85,-21.5 1732.5,-21.5 1732.5,-21.5 1738.5,-21.5 1744.5,-27.5 1744.5,-33.5 1744.5,-33.5 1744.5,-52.55 1744.5,-52.55 1744.5,-58.55 1738.5,-64.55 1732.5,-64.55 1732.5,-64.55 1571.85,-64.55 1571.85,-64.55 1565.85,-64.55 1559.85,-58.55 1559.85,-52.55 1559.85,-52.55 1559.85,-33.5 1559.85,-33.5 1559.85,-27.5 1565.85,-21.5 1571.85,-21.5"/>
<text xml:space="preserve" text-anchor="middle" x="1588.5" y="-38.75" font-family="Helvetica,sans-Serif" font-size="12.00">Conv</text>
<polyline fill="none" stroke="black" points="1617.15,-21.5 1617.15,-64.55"/>
<text xml:space="preserve" text-anchor="middle" x="1649.55" y="-38.75" font-family="Helvetica,sans-Serif" font-size="12.00">256 ch</text>
<polyline fill="none" stroke="black" points="1681.95,-21.5 1681.95,-64.55"/>
<text xml:space="preserve" text-anchor="middle" x="1713.22" y="-38.75" font-family="Helvetica,sans-Serif" font-size="12.00">40×40</text>
</g>
<!-- p3&#45;&gt;b6 -->
<g id="edge6" class="edge">
<title>p3&#45;&gt;b6</title>
<path fill="none" stroke="#555555" stroke-width="1.8" d="M1488.18,-43.02C1488.18,-43.02 1548.66,-43.02 1548.66,-43.02"/>
<polygon fill="#555555" stroke="#555555" stroke-width="1.8" points="1548.66,-45.83 1556.66,-43.03 1548.66,-40.23 1548.66,-45.83"/>
</g>
<!-- cat2 -->
<g id="node17" class="node">
<title>cat2</title>
<path fill="#bbf7d0" stroke="black" d="M4057.2,-59.5C4057.2,-59.5 4165.05,-59.5 4165.05,-59.5 4171.05,-59.5 4177.05,-65.5 4177.05,-71.5 4177.05,-71.5 4177.05,-90.55 4177.05,-90.55 4177.05,-96.55 4171.05,-102.55 4165.05,-102.55 4165.05,-102.55 4057.2,-102.55 4057.2,-102.55 4051.2,-102.55 4045.2,-96.55 4045.2,-90.55 4045.2,-90.55 4045.2,-71.5 4045.2,-71.5 4045.2,-65.5 4051.2,-59.5 4057.2,-59.5"/>
<text xml:space="preserve" text-anchor="middle" x="4078.72" y="-76.75" font-family="Helvetica,sans-Serif" font-size="12.00">Concat</text>
<polyline fill="none" stroke="black" points="4112.25,-59.5 4112.25,-102.55"/>
<text xml:space="preserve" text-anchor="middle" x="4144.65" y="-76.75" font-family="Helvetica,sans-Serif" font-size="12.00">512 ch</text>
</g>
<!-- p3&#45;&gt;cat2 -->
<g id="edge18" class="edge">
<title>p3&#45;&gt;cat2</title>
<path fill="none" stroke="#555555" stroke-width="1.8" d="M1386.95,-64.76C1386.95,-88.3 1386.95,-122.55 1386.95,-122.55 1386.95,-122.55 4110.95,-122.55 4110.95,-122.55 4110.95,-122.55 4110.95,-113.48 4110.95,-113.48"/>
<polygon fill="#555555" stroke="#555555" stroke-width="1.8" points="4113.75,-113.48 4110.95,-105.48 4108.15,-113.48 4113.75,-113.48"/>
</g>
<!-- p4 -->
<g id="node8" class="node">
<title>p4</title>
<path fill="#60a5fa" stroke="black" d="M1828.5,-21.5C1828.5,-21.5 2005.65,-21.5 2005.65,-21.5 2011.65,-21.5 2017.65,-27.5 2017.65,-33.5 2017.65,-33.5 2017.65,-52.55 2017.65,-52.55 2017.65,-58.55 2011.65,-64.55 2005.65,-64.55 2005.65,-64.55 1828.5,-64.55 1828.5,-64.55 1822.5,-64.55 1816.5,-58.55 1816.5,-52.55 1816.5,-52.55 1816.5,-33.5 1816.5,-33.5 1816.5,-27.5 1822.5,-21.5 1828.5,-21.5"/>
<text xml:space="preserve" text-anchor="middle" x="1853.4" y="-38.75" font-family="Helvetica,sans-Serif" font-size="12.00">C3k2 ×8</text>
<polyline fill="none" stroke="black" points="1890.3,-21.5 1890.3,-64.55"/>
<text xml:space="preserve" text-anchor="middle" x="1922.7" y="-38.75" font-family="Helvetica,sans-Serif" font-size="12.00">256 ch</text>
<polyline fill="none" stroke="black" points="1955.1,-21.5 1955.1,-64.55"/>
<text xml:space="preserve" text-anchor="middle" x="1986.37" y="-38.75" font-family="Helvetica,sans-Serif" font-size="12.00">40×40</text>
</g>
<!-- b6&#45;&gt;p4 -->
<g id="edge7" class="edge">
<title>b6&#45;&gt;p4</title>
<path fill="none" stroke="#555555" stroke-width="1.8" d="M1744.82,-43.02C1744.82,-43.02 1805.63,-43.02 1805.63,-43.02"/>
<polygon fill="#555555" stroke="#555555" stroke-width="1.8" points="1805.63,-45.83 1813.63,-43.03 1805.63,-40.23 1805.63,-45.83"/>
</g>
<!-- b8 -->
<g id="node9" class="node">
<title>b8</title>
<path fill="#dbeafe" stroke="black" d="M2101.65,-21.5C2101.65,-21.5 2262.3,-21.5 2262.3,-21.5 2268.3,-21.5 2274.3,-27.5 2274.3,-33.5 2274.3,-33.5 2274.3,-52.55 2274.3,-52.55 2274.3,-58.55 2268.3,-64.55 2262.3,-64.55 2262.3,-64.55 2101.65,-64.55 2101.65,-64.55 2095.65,-64.55 2089.65,-58.55 2089.65,-52.55 2089.65,-52.55 2089.65,-33.5 2089.65,-33.5 2089.65,-27.5 2095.65,-21.5 2101.65,-21.5"/>
<text xml:space="preserve" text-anchor="middle" x="2118.3" y="-38.75" font-family="Helvetica,sans-Serif" font-size="12.00">Conv</text>
<polyline fill="none" stroke="black" points="2146.95,-21.5 2146.95,-64.55"/>
<text xml:space="preserve" text-anchor="middle" x="2179.35" y="-38.75" font-family="Helvetica,sans-Serif" font-size="12.00">512 ch</text>
<polyline fill="none" stroke="black" points="2211.75,-21.5 2211.75,-64.55"/>
<text xml:space="preserve" text-anchor="middle" x="2243.02" y="-38.75" font-family="Helvetica,sans-Serif" font-size="12.00">20×20</text>
</g>
<!-- p4&#45;&gt;b8 -->
<g id="edge8" class="edge">
<title>p4&#45;&gt;b8</title>
<path fill="none" stroke="#555555" stroke-width="1.8" d="M2017.98,-43.02C2017.98,-43.02 2078.46,-43.02 2078.46,-43.02"/>
<polygon fill="#555555" stroke="#555555" stroke-width="1.8" points="2078.46,-45.83 2086.46,-43.03 2078.46,-40.23 2078.46,-45.83"/>
</g>
<!-- cat1 -->
<g id="node14" class="node">
<title>cat1</title>
<path fill="#bbf7d0" stroke="black" d="M3378.6,-40.5C3378.6,-40.5 3486.45,-40.5 3486.45,-40.5 3492.45,-40.5 3498.45,-46.5 3498.45,-52.5 3498.45,-52.5 3498.45,-71.55 3498.45,-71.55 3498.45,-77.55 3492.45,-83.55 3486.45,-83.55 3486.45,-83.55 3378.6,-83.55 3378.6,-83.55 3372.6,-83.55 3366.6,-77.55 3366.6,-71.55 3366.6,-71.55 3366.6,-52.5 3366.6,-52.5 3366.6,-46.5 3372.6,-40.5 3378.6,-40.5"/>
<text xml:space="preserve" text-anchor="middle" x="3400.12" y="-57.75" font-family="Helvetica,sans-Serif" font-size="12.00">Concat</text>
<polyline fill="none" stroke="black" points="3433.65,-40.5 3433.65,-83.55"/>
<text xml:space="preserve" text-anchor="middle" x="3466.05" y="-57.75" font-family="Helvetica,sans-Serif" font-size="12.00">768 ch</text>
</g>
<!-- p4&#45;&gt;cat1 -->
<g id="edge14" class="edge">
<title>p4&#45;&gt;cat1</title>
<path fill="none" stroke="#555555" stroke-width="1.8" d="M1916.95,-64.92C1916.95,-70.3 1916.95,-74.55 1916.95,-74.55 1916.95,-74.55 3355.7,-74.55 3355.7,-74.55"/>
<polygon fill="#555555" stroke="#555555" stroke-width="1.8" points="3355.7,-77.35 3363.7,-74.55 3355.7,-71.75 3355.7,-77.35"/>
</g>
<!-- p5 -->
<g id="node10" class="node">
<title>p5</title>
<path fill="#3b82f6" stroke="black" d="M2358.3,-21.5C2358.3,-21.5 2535.45,-21.5 2535.45,-21.5 2541.45,-21.5 2547.45,-27.5 2547.45,-33.5 2547.45,-33.5 2547.45,-52.55 2547.45,-52.55 2547.45,-58.55 2541.45,-64.55 2535.45,-64.55 2535.45,-64.55 2358.3,-64.55 2358.3,-64.55 2352.3,-64.55 2346.3,-58.55 2346.3,-52.55 2346.3,-52.55 2346.3,-33.5 2346.3,-33.5 2346.3,-27.5 2352.3,-21.5 2358.3,-21.5"/>
<text xml:space="preserve" text-anchor="middle" x="2383.2" y="-38.75" font-family="Helvetica,sans-Serif" font-size="12.00" fill="white">C3k2 ×8</text>
<polyline fill="none" stroke="black" points="2420.1,-21.5 2420.1,-64.55"/>
<text xml:space="preserve" text-anchor="middle" x="2452.5" y="-38.75" font-family="Helvetica,sans-Serif" font-size="12.00" fill="white">512 ch</text>
<polyline fill="none" stroke="black" points="2484.9,-21.5 2484.9,-64.55"/>
<text xml:space="preserve" text-anchor="middle" x="2516.17" y="-38.75" font-family="Helvetica,sans-Serif" font-size="12.00" fill="white">20×20</text>
</g>
<!-- b8&#45;&gt;p5 -->
<g id="edge9" class="edge">
<title>b8&#45;&gt;p5</title>
<path fill="none" stroke="#555555" stroke-width="1.8" d="M2274.62,-43.02C2274.62,-43.02 2335.43,-43.02 2335.43,-43.02"/>
<polygon fill="#555555" stroke="#555555" stroke-width="1.8" points="2335.43,-45.83 2343.43,-43.03 2335.43,-40.23 2335.43,-45.83"/>
</g>
<!-- sppf -->
<g id="node11" class="node">
<title>sppf</title>
<path fill="#2563eb" stroke="black" d="M2631.45,-21.5C2631.45,-21.5 2795.85,-21.5 2795.85,-21.5 2801.85,-21.5 2807.85,-27.5 2807.85,-33.5 2807.85,-33.5 2807.85,-52.55 2807.85,-52.55 2807.85,-58.55 2801.85,-64.55 2795.85,-64.55 2795.85,-64.55 2631.45,-64.55 2631.45,-64.55 2625.45,-64.55 2619.45,-58.55 2619.45,-52.55 2619.45,-52.55 2619.45,-33.5 2619.45,-33.5 2619.45,-27.5 2625.45,-21.5 2631.45,-21.5"/>
<text xml:space="preserve" text-anchor="middle" x="2649.97" y="-38.75" font-family="Helvetica,sans-Serif" font-size="12.00" fill="white">SPPF</text>
<polyline fill="none" stroke="black" points="2680.5,-21.5 2680.5,-64.55"/>
<text xml:space="preserve" text-anchor="middle" x="2712.9" y="-38.75" font-family="Helvetica,sans-Serif" font-size="12.00" fill="white">512 ch</text>
<polyline fill="none" stroke="black" points="2745.3,-21.5 2745.3,-64.55"/>
<text xml:space="preserve" text-anchor="middle" x="2776.57" y="-38.75" font-family="Helvetica,sans-Serif" font-size="12.00" fill="white">20×20</text>
</g>
<!-- p5&#45;&gt;sppf -->
<g id="edge10" class="edge">
<title>p5&#45;&gt;sppf</title>
<path fill="none" stroke="#555555" stroke-width="1.8" d="M2547.73,-43.02C2547.73,-43.02 2608.53,-43.02 2608.53,-43.02"/>
<polygon fill="#555555" stroke="#555555" stroke-width="1.8" points="2608.53,-45.83 2616.53,-43.03 2608.53,-40.23 2608.53,-45.83"/>
</g>
<!-- psa -->
<g id="node12" class="node">
<title>psa</title>
<path fill="#1d4ed8" stroke="black" d="M2891.85,-21.5C2891.85,-21.5 3064.5,-21.5 3064.5,-21.5 3070.5,-21.5 3076.5,-27.5 3076.5,-33.5 3076.5,-33.5 3076.5,-52.55 3076.5,-52.55 3076.5,-58.55 3070.5,-64.55 3064.5,-64.55 3064.5,-64.55 2891.85,-64.55 2891.85,-64.55 2885.85,-64.55 2879.85,-58.55 2879.85,-52.55 2879.85,-52.55 2879.85,-33.5 2879.85,-33.5 2879.85,-27.5 2885.85,-21.5 2891.85,-21.5"/>
<text xml:space="preserve" text-anchor="middle" x="2914.5" y="-38.75" font-family="Helvetica,sans-Serif" font-size="12.00" fill="white">C2PSA</text>
<polyline fill="none" stroke="black" points="2949.15,-21.5 2949.15,-64.55"/>
<text xml:space="preserve" text-anchor="middle" x="2981.55" y="-38.75" font-family="Helvetica,sans-Serif" font-size="12.00" fill="white">512 ch</text>
<polyline fill="none" stroke="black" points="3013.95,-21.5 3013.95,-64.55"/>
<text xml:space="preserve" text-anchor="middle" x="3045.22" y="-38.75" font-family="Helvetica,sans-Serif" font-size="12.00" fill="white">20×20</text>
</g>
<!-- sppf&#45;&gt;psa -->
<g id="edge11" class="edge">
<title>sppf&#45;&gt;psa</title>
<path fill="none" stroke="#555555" stroke-width="1.8" d="M2808.03,-43.02C2808.03,-43.02 2868.64,-43.02 2868.64,-43.02"/>
<polygon fill="#555555" stroke="#555555" stroke-width="1.8" points="2868.64,-45.83 2876.64,-43.03 2868.64,-40.23 2868.64,-45.83"/>
</g>
<!-- up1 -->
<g id="node13" class="node">
<title>up1</title>
<path fill="#dcfce7" stroke="black" d="M3160.5,-21.5C3160.5,-21.5 3282.6,-21.5 3282.6,-21.5 3288.6,-21.5 3294.6,-27.5 3294.6,-33.5 3294.6,-33.5 3294.6,-52.55 3294.6,-52.55 3294.6,-58.55 3288.6,-64.55 3282.6,-64.55 3282.6,-64.55 3160.5,-64.55 3160.5,-64.55 3154.5,-64.55 3148.5,-58.55 3148.5,-52.55 3148.5,-52.55 3148.5,-33.5 3148.5,-33.5 3148.5,-27.5 3154.5,-21.5 3160.5,-21.5"/>
<text xml:space="preserve" text-anchor="middle" x="3190.27" y="-38.75" font-family="Helvetica,sans-Serif" font-size="12.00">Upsample</text>
<polyline fill="none" stroke="black" points="3232.05,-21.5 3232.05,-64.55"/>
<text xml:space="preserve" text-anchor="middle" x="3263.32" y="-38.75" font-family="Helvetica,sans-Serif" font-size="12.00">40×40</text>
</g>
<!-- psa&#45;&gt;up1 -->
<g id="edge12" class="edge">
<title>psa&#45;&gt;up1</title>
<path fill="none" stroke="#555555" stroke-width="1.8" d="M3076.81,-43.02C3076.81,-43.02 3137.47,-43.02 3137.47,-43.02"/>
<polygon fill="#555555" stroke="#555555" stroke-width="1.8" points="3137.47,-45.83 3145.47,-43.03 3137.47,-40.23 3137.47,-45.83"/>
</g>
<!-- cat4 -->
<g id="node23" class="node">
<title>cat4</title>
<path fill="#bbf7d0" stroke="black" d="M5508.9,-21.5C5508.9,-21.5 5616.75,-21.5 5616.75,-21.5 5622.75,-21.5 5628.75,-27.5 5628.75,-33.5 5628.75,-33.5 5628.75,-52.55 5628.75,-52.55 5628.75,-58.55 5622.75,-64.55 5616.75,-64.55 5616.75,-64.55 5508.9,-64.55 5508.9,-64.55 5502.9,-64.55 5496.9,-58.55 5496.9,-52.55 5496.9,-52.55 5496.9,-33.5 5496.9,-33.5 5496.9,-27.5 5502.9,-21.5 5508.9,-21.5"/>
<text xml:space="preserve" text-anchor="middle" x="5530.42" y="-38.75" font-family="Helvetica,sans-Serif" font-size="12.00">Concat</text>
<polyline fill="none" stroke="black" points="5563.95,-21.5 5563.95,-64.55"/>
<text xml:space="preserve" text-anchor="middle" x="5596.35" y="-38.75" font-family="Helvetica,sans-Serif" font-size="12.00">768 ch</text>
</g>
<!-- psa&#45;&gt;cat4 -->
<g id="edge26" class="edge">
<title>psa&#45;&gt;cat4</title>
<path fill="none" stroke="#555555" stroke-width="1.8" d="M2977.95,-21.01C2977.95,-10.42 2977.95,0 2977.95,0 2977.95,0 5562.95,0 5562.95,0 5562.95,0 5562.95,-10.28 5562.95,-10.28"/>
<polygon fill="#555555" stroke="#555555" stroke-width="1.8" points="5560.15,-10.28 5562.95,-18.28 5565.75,-10.28 5560.15,-10.28"/>
</g>
<!-- up1&#45;&gt;cat1 -->
<g id="edge13" class="edge">
<title>up1&#45;&gt;cat1</title>
<path fill="none" stroke="#555555" stroke-width="1.8" d="M3295.04,-52.52C3295.04,-52.52 3355.62,-52.52 3355.62,-52.52"/>
<polygon fill="#555555" stroke="#555555" stroke-width="1.8" points="3355.62,-55.33 3363.62,-52.53 3355.62,-49.73 3355.62,-55.33"/>
</g>
<!-- n1 -->
<g id="node15" class="node">
<title>n1</title>
<path fill="#86efac" stroke="black" d="M3582.45,-40.5C3582.45,-40.5 3743.1,-40.5 3743.1,-40.5 3749.1,-40.5 3755.1,-46.5 3755.1,-52.5 3755.1,-52.5 3755.1,-71.55 3755.1,-71.55 3755.1,-77.55 3749.1,-83.55 3743.1,-83.55 3743.1,-83.55 3582.45,-83.55 3582.45,-83.55 3576.45,-83.55 3570.45,-77.55 3570.45,-71.55 3570.45,-71.55 3570.45,-52.5 3570.45,-52.5 3570.45,-46.5 3576.45,-40.5 3582.45,-40.5"/>
<text xml:space="preserve" text-anchor="middle" x="3599.1" y="-57.75" font-family="Helvetica,sans-Serif" font-size="12.00">C3k2</text>
<polyline fill="none" stroke="black" points="3627.75,-40.5 3627.75,-83.55"/>
<text xml:space="preserve" text-anchor="middle" x="3660.15" y="-57.75" font-family="Helvetica,sans-Serif" font-size="12.00">256 ch</text>
<polyline fill="none" stroke="black" points="3692.55,-40.5 3692.55,-83.55"/>
<text xml:space="preserve" text-anchor="middle" x="3723.82" y="-57.75" font-family="Helvetica,sans-Serif" font-size="12.00">40×40</text>
</g>
<!-- cat1&#45;&gt;n1 -->
<g id="edge15" class="edge">
<title>cat1&#45;&gt;n1</title>
<path fill="none" stroke="#555555" stroke-width="1.8" d="M3498.81,-62.02C3498.81,-62.02 3559.26,-62.02 3559.26,-62.02"/>
<polygon fill="#555555" stroke="#555555" stroke-width="1.8" points="3559.26,-64.83 3567.26,-62.03 3559.26,-59.23 3559.26,-64.83"/>
</g>
<!-- up2 -->
<g id="node16" class="node">
<title>up2</title>
<path fill="#dcfce7" stroke="black" d="M3839.1,-59.5C3839.1,-59.5 3961.2,-59.5 3961.2,-59.5 3967.2,-59.5 3973.2,-65.5 3973.2,-71.5 3973.2,-71.5 3973.2,-90.55 3973.2,-90.55 3973.2,-96.55 3967.2,-102.55 3961.2,-102.55 3961.2,-102.55 3839.1,-102.55 3839.1,-102.55 3833.1,-102.55 3827.1,-96.55 3827.1,-90.55 3827.1,-90.55 3827.1,-71.5 3827.1,-71.5 3827.1,-65.5 3833.1,-59.5 3839.1,-59.5"/>
<text xml:space="preserve" text-anchor="middle" x="3868.87" y="-76.75" font-family="Helvetica,sans-Serif" font-size="12.00">Upsample</text>
<polyline fill="none" stroke="black" points="3910.65,-59.5 3910.65,-102.55"/>
<text xml:space="preserve" text-anchor="middle" x="3941.92" y="-76.75" font-family="Helvetica,sans-Serif" font-size="12.00">80×80</text>
</g>
<!-- n1&#45;&gt;up2 -->
<g id="edge16" class="edge">
<title>n1&#45;&gt;up2</title>
<path fill="none" stroke="#555555" stroke-width="1.8" d="M3755.57,-71.53C3755.57,-71.53 3816.16,-71.53 3816.16,-71.53"/>
<polygon fill="#555555" stroke="#555555" stroke-width="1.8" points="3816.16,-74.33 3824.16,-71.53 3816.16,-68.73 3816.16,-74.33"/>
</g>
<!-- cat3 -->
<g id="node20" class="node">
<title>cat3</title>
<path fill="#bbf7d0" stroke="black" d="M4783.05,-40.5C4783.05,-40.5 4890.9,-40.5 4890.9,-40.5 4896.9,-40.5 4902.9,-46.5 4902.9,-52.5 4902.9,-52.5 4902.9,-71.55 4902.9,-71.55 4902.9,-77.55 4896.9,-83.55 4890.9,-83.55 4890.9,-83.55 4783.05,-83.55 4783.05,-83.55 4777.05,-83.55 4771.05,-77.55 4771.05,-71.55 4771.05,-71.55 4771.05,-52.5 4771.05,-52.5 4771.05,-46.5 4777.05,-40.5 4783.05,-40.5"/>
<text xml:space="preserve" text-anchor="middle" x="4804.57" y="-57.75" font-family="Helvetica,sans-Serif" font-size="12.00">Concat</text>
<polyline fill="none" stroke="black" points="4838.1,-40.5 4838.1,-83.55"/>
<text xml:space="preserve" text-anchor="middle" x="4870.5" y="-57.75" font-family="Helvetica,sans-Serif" font-size="12.00">384 ch</text>
</g>
<!-- n1&#45;&gt;cat3 -->
<g id="edge22" class="edge">
<title>n1&#45;&gt;cat3</title>
<path fill="none" stroke="#555555" stroke-width="1.8" d="M3755.4,-49.5C3755.4,-49.5 4759.98,-49.5 4759.98,-49.5"/>
<polygon fill="#555555" stroke="#555555" stroke-width="1.8" points="4759.98,-52.3 4767.98,-49.5 4759.98,-46.7 4759.98,-52.3"/>
</g>
<!-- up2&#45;&gt;cat2 -->
<g id="edge17" class="edge">
<title>up2&#45;&gt;cat2</title>
<path fill="none" stroke="#555555" stroke-width="1.8" d="M3973.64,-81.03C3973.64,-81.03 4034.22,-81.03 4034.22,-81.03"/>
<polygon fill="#555555" stroke="#555555" stroke-width="1.8" points="4034.22,-83.83 4042.22,-81.03 4034.22,-78.23 4034.22,-83.83"/>
</g>
<!-- n2 -->
<g id="node18" class="node">
<title>n2</title>
<path fill="#4ade80" stroke="black" d="M4261.05,-59.5C4261.05,-59.5 4421.7,-59.5 4421.7,-59.5 4427.7,-59.5 4433.7,-65.5 4433.7,-71.5 4433.7,-71.5 4433.7,-90.55 4433.7,-90.55 4433.7,-96.55 4427.7,-102.55 4421.7,-102.55 4421.7,-102.55 4261.05,-102.55 4261.05,-102.55 4255.05,-102.55 4249.05,-96.55 4249.05,-90.55 4249.05,-90.55 4249.05,-71.5 4249.05,-71.5 4249.05,-65.5 4255.05,-59.5 4261.05,-59.5"/>
<text xml:space="preserve" text-anchor="middle" x="4277.7" y="-76.75" font-family="Helvetica,sans-Serif" font-size="12.00">C3k2</text>
<polyline fill="none" stroke="black" points="4306.35,-59.5 4306.35,-102.55"/>
<text xml:space="preserve" text-anchor="middle" x="4338.75" y="-76.75" font-family="Helvetica,sans-Serif" font-size="12.00">128 ch</text>
<polyline fill="none" stroke="black" points="4371.15,-59.5 4371.15,-102.55"/>
<text xml:space="preserve" text-anchor="middle" x="4402.42" y="-76.75" font-family="Helvetica,sans-Serif" font-size="12.00">80×80</text>
</g>
<!-- cat2&#45;&gt;n2 -->
<g id="edge19" class="edge">
<title>cat2&#45;&gt;n2</title>
<path fill="none" stroke="#555555" stroke-width="1.8" d="M4177.41,-81.03C4177.41,-81.03 4237.86,-81.03 4237.86,-81.03"/>
<polygon fill="#555555" stroke="#555555" stroke-width="1.8" points="4237.86,-83.83 4245.86,-81.03 4237.86,-78.23 4237.86,-83.83"/>
</g>
<!-- down1 -->
<g id="node19" class="node">
<title>down1</title>
<path fill="#dcfce7" stroke="black" d="M4517.7,-59.5C4517.7,-59.5 4687.05,-59.5 4687.05,-59.5 4693.05,-59.5 4699.05,-65.5 4699.05,-71.5 4699.05,-71.5 4699.05,-90.55 4699.05,-90.55 4699.05,-96.55 4693.05,-102.55 4687.05,-102.55 4687.05,-102.55 4517.7,-102.55 4517.7,-102.55 4511.7,-102.55 4505.7,-96.55 4505.7,-90.55 4505.7,-90.55 4505.7,-71.5 4505.7,-71.5 4505.7,-65.5 4511.7,-59.5 4517.7,-59.5"/>
<text xml:space="preserve" text-anchor="middle" x="4571.1" y="-76.75" font-family="Helvetica,sans-Serif" font-size="12.00">Downsample Conv</text>
<polyline fill="none" stroke="black" points="4636.5,-59.5 4636.5,-102.55"/>
<text xml:space="preserve" text-anchor="middle" x="4667.77" y="-76.75" font-family="Helvetica,sans-Serif" font-size="12.00">40×40</text>
</g>
<!-- n2&#45;&gt;down1 -->
<g id="edge20" class="edge">
<title>n2&#45;&gt;down1</title>
<path fill="none" stroke="#555555" stroke-width="1.8" d="M4434.13,-81.03C4434.13,-81.03 4494.78,-81.03 4494.78,-81.03"/>
<polygon fill="#555555" stroke="#555555" stroke-width="1.8" points="4494.78,-83.83 4502.78,-81.03 4494.78,-78.23 4494.78,-83.83"/>
</g>
<!-- d1 -->
<g id="node25" class="node">
<title>d1</title>
<path fill="#fecaca" stroke="black" d="M5969.4,-178.5C5969.4,-178.5 6089.25,-178.5 6089.25,-178.5 6095.25,-178.5 6101.25,-184.5 6101.25,-190.5 6101.25,-190.5 6101.25,-209.55 6101.25,-209.55 6101.25,-215.55 6095.25,-221.55 6089.25,-221.55 6089.25,-221.55 5969.4,-221.55 5969.4,-221.55 5963.4,-221.55 5957.4,-215.55 5957.4,-209.55 5957.4,-209.55 5957.4,-190.5 5957.4,-190.5 5957.4,-184.5 5963.4,-178.5 5969.4,-178.5"/>
<text xml:space="preserve" text-anchor="middle" x="5998.05" y="-195.75" font-family="Helvetica,sans-Serif" font-size="12.00">Detect P3</text>
<polyline fill="none" stroke="black" points="6038.7,-178.5 6038.7,-221.55"/>
<text xml:space="preserve" text-anchor="middle" x="6069.97" y="-195.75" font-family="Helvetica,sans-Serif" font-size="12.00">80×80</text>
</g>
<!-- n2&#45;&gt;d1 -->
<g id="edge28" class="edge">
<title>n2&#45;&gt;d1</title>
<path fill="none" stroke="#555555" stroke-width="1.8" d="M4340.95,-102.85C4340.95,-137.21 4340.95,-200.03 4340.95,-200.03 4340.95,-200.03 5946.32,-200.03 5946.32,-200.03"/>
<polygon fill="#555555" stroke="#555555" stroke-width="1.8" points="5946.32,-202.83 5954.32,-200.03 5946.32,-197.23 5946.32,-202.83"/>
</g>
<!-- down1&#45;&gt;cat3 -->
<g id="edge21" class="edge">
<title>down1&#45;&gt;cat3</title>
<path fill="none" stroke="#555555" stroke-width="1.8" d="M4699.49,-71.53C4699.49,-71.53 4759.93,-71.53 4759.93,-71.53"/>
<polygon fill="#555555" stroke="#555555" stroke-width="1.8" points="4759.93,-74.33 4767.93,-71.53 4759.93,-68.73 4759.93,-74.33"/>
</g>
<!-- n3 -->
<g id="node21" class="node">
<title>n3</title>
<path fill="#22c55e" stroke="black" d="M4986.9,-40.5C4986.9,-40.5 5147.55,-40.5 5147.55,-40.5 5153.55,-40.5 5159.55,-46.5 5159.55,-52.5 5159.55,-52.5 5159.55,-71.55 5159.55,-71.55 5159.55,-77.55 5153.55,-83.55 5147.55,-83.55 5147.55,-83.55 4986.9,-83.55 4986.9,-83.55 4980.9,-83.55 4974.9,-77.55 4974.9,-71.55 4974.9,-71.55 4974.9,-52.5 4974.9,-52.5 4974.9,-46.5 4980.9,-40.5 4986.9,-40.5"/>
<text xml:space="preserve" text-anchor="middle" x="5003.55" y="-57.75" font-family="Helvetica,sans-Serif" font-size="12.00">C3k2</text>
<polyline fill="none" stroke="black" points="5032.2,-40.5 5032.2,-83.55"/>
<text xml:space="preserve" text-anchor="middle" x="5064.6" y="-57.75" font-family="Helvetica,sans-Serif" font-size="12.00">256 ch</text>
<polyline fill="none" stroke="black" points="5097,-40.5 5097,-83.55"/>
<text xml:space="preserve" text-anchor="middle" x="5128.27" y="-57.75" font-family="Helvetica,sans-Serif" font-size="12.00">40×40</text>
</g>
<!-- cat3&#45;&gt;n3 -->
<g id="edge23" class="edge">
<title>cat3&#45;&gt;n3</title>
<path fill="none" stroke="#555555" stroke-width="1.8" d="M4903.26,-62.02C4903.26,-62.02 4963.71,-62.02 4963.71,-62.02"/>
<polygon fill="#555555" stroke="#555555" stroke-width="1.8" points="4963.71,-64.83 4971.71,-62.03 4963.71,-59.23 4963.71,-64.83"/>
</g>
<!-- down2 -->
<g id="node22" class="node">
<title>down2</title>
<path fill="#dcfce7" stroke="black" d="M5243.55,-21.5C5243.55,-21.5 5412.9,-21.5 5412.9,-21.5 5418.9,-21.5 5424.9,-27.5 5424.9,-33.5 5424.9,-33.5 5424.9,-52.55 5424.9,-52.55 5424.9,-58.55 5418.9,-64.55 5412.9,-64.55 5412.9,-64.55 5243.55,-64.55 5243.55,-64.55 5237.55,-64.55 5231.55,-58.55 5231.55,-52.55 5231.55,-52.55 5231.55,-33.5 5231.55,-33.5 5231.55,-27.5 5237.55,-21.5 5243.55,-21.5"/>
<text xml:space="preserve" text-anchor="middle" x="5296.95" y="-38.75" font-family="Helvetica,sans-Serif" font-size="12.00">Downsample Conv</text>
<polyline fill="none" stroke="black" points="5362.35,-21.5 5362.35,-64.55"/>
<text xml:space="preserve" text-anchor="middle" x="5393.62" y="-38.75" font-family="Helvetica,sans-Serif" font-size="12.00">20×20</text>
</g>
<!-- n3&#45;&gt;down2 -->
<g id="edge24" class="edge">
<title>n3&#45;&gt;down2</title>
<path fill="none" stroke="#555555" stroke-width="1.8" d="M5159.98,-52.52C5159.98,-52.52 5220.63,-52.52 5220.63,-52.52"/>
<polygon fill="#555555" stroke="#555555" stroke-width="1.8" points="5220.63,-55.33 5228.63,-52.53 5220.63,-49.73 5220.63,-55.33"/>
</g>
<!-- d2 -->
<g id="node26" class="node">
<title>d2</title>
<path fill="#fca5a5" stroke="black" d="M5969.4,-98.5C5969.4,-98.5 6089.25,-98.5 6089.25,-98.5 6095.25,-98.5 6101.25,-104.5 6101.25,-110.5 6101.25,-110.5 6101.25,-129.55 6101.25,-129.55 6101.25,-135.55 6095.25,-141.55 6089.25,-141.55 6089.25,-141.55 5969.4,-141.55 5969.4,-141.55 5963.4,-141.55 5957.4,-135.55 5957.4,-129.55 5957.4,-129.55 5957.4,-110.5 5957.4,-110.5 5957.4,-104.5 5963.4,-98.5 5969.4,-98.5"/>
<text xml:space="preserve" text-anchor="middle" x="5998.05" y="-115.75" font-family="Helvetica,sans-Serif" font-size="12.00">Detect P4</text>
<polyline fill="none" stroke="black" points="6038.7,-98.5 6038.7,-141.55"/>
<text xml:space="preserve" text-anchor="middle" x="6069.97" y="-115.75" font-family="Helvetica,sans-Serif" font-size="12.00">40×40</text>
</g>
<!-- n3&#45;&gt;d2 -->
<g id="edge29" class="edge">
<title>n3&#45;&gt;d2</title>
<path fill="none" stroke="#555555" stroke-width="1.8" d="M5159.88,-74.55C5400.91,-74.55 6028.95,-74.55 6028.95,-74.55 6028.95,-74.55 6028.95,-87.36 6028.95,-87.36"/>
<polygon fill="#555555" stroke="#555555" stroke-width="1.8" points="6026.15,-87.36 6028.95,-95.36 6031.75,-87.36 6026.15,-87.36"/>
</g>
<!-- down2&#45;&gt;cat4 -->
<g id="edge25" class="edge">
<title>down2&#45;&gt;cat4</title>
<path fill="none" stroke="#555555" stroke-width="1.8" d="M5425.34,-43.02C5425.34,-43.02 5485.78,-43.02 5485.78,-43.02"/>
<polygon fill="#555555" stroke="#555555" stroke-width="1.8" points="5485.78,-45.83 5493.78,-43.03 5485.78,-40.23 5485.78,-45.83"/>
</g>
<!-- n4 -->
<g id="node24" class="node">
<title>n4</title>
<path fill="#16a34a" stroke="black" d="M5712.75,-21.5C5712.75,-21.5 5873.4,-21.5 5873.4,-21.5 5879.4,-21.5 5885.4,-27.5 5885.4,-33.5 5885.4,-33.5 5885.4,-52.55 5885.4,-52.55 5885.4,-58.55 5879.4,-64.55 5873.4,-64.55 5873.4,-64.55 5712.75,-64.55 5712.75,-64.55 5706.75,-64.55 5700.75,-58.55 5700.75,-52.55 5700.75,-52.55 5700.75,-33.5 5700.75,-33.5 5700.75,-27.5 5706.75,-21.5 5712.75,-21.5"/>
<text xml:space="preserve" text-anchor="middle" x="5729.4" y="-38.75" font-family="Helvetica,sans-Serif" font-size="12.00" fill="white">C3k2</text>
<polyline fill="none" stroke="black" points="5758.05,-21.5 5758.05,-64.55"/>
<text xml:space="preserve" text-anchor="middle" x="5790.45" y="-38.75" font-family="Helvetica,sans-Serif" font-size="12.00" fill="white">512 ch</text>
<polyline fill="none" stroke="black" points="5822.85,-21.5 5822.85,-64.55"/>
<text xml:space="preserve" text-anchor="middle" x="5854.12" y="-38.75" font-family="Helvetica,sans-Serif" font-size="12.00" fill="white">20×20</text>
</g>
<!-- cat4&#45;&gt;n4 -->
<g id="edge27" class="edge">
<title>cat4&#45;&gt;n4</title>
<path fill="none" stroke="#555555" stroke-width="1.8" d="M5629.11,-43.02C5629.11,-43.02 5689.56,-43.02 5689.56,-43.02"/>
<polygon fill="#555555" stroke="#555555" stroke-width="1.8" points="5689.56,-45.83 5697.56,-43.03 5689.56,-40.23 5689.56,-45.83"/>
</g>
<!-- d3 -->
<g id="node27" class="node">
<title>d3</title>
<path fill="#f87171" stroke="black" d="M5969.4,-18.5C5969.4,-18.5 6089.25,-18.5 6089.25,-18.5 6095.25,-18.5 6101.25,-24.5 6101.25,-30.5 6101.25,-30.5 6101.25,-49.55 6101.25,-49.55 6101.25,-55.55 6095.25,-61.55 6089.25,-61.55 6089.25,-61.55 5969.4,-61.55 5969.4,-61.55 5963.4,-61.55 5957.4,-55.55 5957.4,-49.55 5957.4,-49.55 5957.4,-30.5 5957.4,-30.5 5957.4,-24.5 5963.4,-18.5 5969.4,-18.5"/>
<text xml:space="preserve" text-anchor="middle" x="5998.05" y="-35.75" font-family="Helvetica,sans-Serif" font-size="12.00">Detect P5</text>
<polyline fill="none" stroke="black" points="6038.7,-18.5 6038.7,-61.55"/>
<text xml:space="preserve" text-anchor="middle" x="6069.97" y="-35.75" font-family="Helvetica,sans-Serif" font-size="12.00">20×20</text>
</g>
<!-- n4&#45;&gt;d3 -->
<g id="edge30" class="edge">
<title>n4&#45;&gt;d3</title>
<path fill="none" stroke="#555555" stroke-width="1.8" d="M5885.77,-41.52C5885.77,-41.52 5946.26,-41.52 5946.26,-41.52"/>
<polygon fill="#555555" stroke="#555555" stroke-width="1.8" points="5946.26,-44.33 5954.26,-41.53 5946.26,-38.73 5946.26,-44.33"/>
</g>
<!-- dfl -->
<g id="node28" class="node">
<title>dfl</title>
<path fill="#ef4444" stroke="black" d="M6185.25,-98.5C6185.25,-98.5 6364.35,-98.5 6364.35,-98.5 6370.35,-98.5 6376.35,-104.5 6376.35,-110.5 6376.35,-110.5 6376.35,-129.55 6376.35,-129.55 6376.35,-135.55 6370.35,-141.55 6364.35,-141.55 6364.35,-141.55 6185.25,-141.55 6185.25,-141.55 6179.25,-141.55 6173.25,-135.55 6173.25,-129.55 6173.25,-129.55 6173.25,-110.5 6173.25,-110.5 6173.25,-104.5 6179.25,-98.5 6185.25,-98.5"/>
<text xml:space="preserve" text-anchor="middle" x="6199.27" y="-115.75" font-family="Helvetica,sans-Serif" font-size="12.00" fill="white">DFL</text>
<polyline fill="none" stroke="black" points="6225.3,-98.5 6225.3,-141.55"/>
<text xml:space="preserve" text-anchor="middle" x="6300.82" y="-115.75" font-family="Helvetica,sans-Serif" font-size="12.00" fill="white">Distribution Focal Loss</text>
</g>
<!-- d1&#45;&gt;dfl -->
<g id="edge31" class="edge">
<title>d1&#45;&gt;dfl</title>
<path fill="none" stroke="#555555" stroke-width="1.8" d="M6101.69,-200.03C6174.15,-200.03 6274.95,-200.03 6274.95,-200.03 6274.95,-200.03 6274.95,-152.61 6274.95,-152.61"/>
<polygon fill="#555555" stroke="#555555" stroke-width="1.8" points="6277.75,-152.61 6274.95,-144.61 6272.15,-152.61 6277.75,-152.61"/>
</g>
<!-- d2&#45;&gt;dfl -->
<g id="edge32" class="edge">
<title>d2&#45;&gt;dfl</title>
<path fill="none" stroke="#555555" stroke-width="1.8" d="M6101.65,-120.03C6101.65,-120.03 6162.26,-120.03 6162.26,-120.03"/>
<polygon fill="#555555" stroke="#555555" stroke-width="1.8" points="6162.26,-122.83 6170.26,-120.03 6162.26,-117.23 6162.26,-122.83"/>
</g>
<!-- d3&#45;&gt;dfl -->
<g id="edge33" class="edge">
<title>d3&#45;&gt;dfl</title>
<path fill="none" stroke="#555555" stroke-width="1.8" d="M6101.69,-40.02C6174.15,-40.02 6274.95,-40.02 6274.95,-40.02 6274.95,-40.02 6274.95,-87.44 6274.95,-87.44"/>
<polygon fill="#555555" stroke="#555555" stroke-width="1.8" points="6272.15,-87.44 6274.95,-95.44 6277.75,-87.44 6272.15,-87.44"/>
</g>
<!-- output -->
<g id="node29" class="node">
<title>output</title>
<path fill="#b91c1c" stroke="black" d="M6460.35,-98.5C6460.35,-98.5 6601.95,-98.5 6601.95,-98.5 6607.95,-98.5 6613.95,-104.5 6613.95,-110.5 6613.95,-110.5 6613.95,-129.55 6613.95,-129.55 6613.95,-135.55 6607.95,-141.55 6601.95,-141.55 6601.95,-141.55 6460.35,-141.55 6460.35,-141.55 6454.35,-141.55 6448.35,-135.55 6448.35,-129.55 6448.35,-129.55 6448.35,-110.5 6448.35,-110.5 6448.35,-104.5 6454.35,-98.5 6460.35,-98.5"/>
<text xml:space="preserve" text-anchor="middle" x="6480.37" y="-115.75" font-family="Helvetica,sans-Serif" font-size="12.00" fill="white">Output</text>
<polyline fill="none" stroke="black" points="6512.4,-98.5 6512.4,-141.55"/>
<text xml:space="preserve" text-anchor="middle" x="6563.17" y="-115.75" font-family="Helvetica,sans-Serif" font-size="12.00" fill="white">1 × 84 × 8400</text>
</g>
<!-- dfl&#45;&gt;output -->
<g id="edge34" class="edge">
<title>dfl&#45;&gt;output</title>
<path fill="none" stroke="#555555" stroke-width="1.8" d="M6376.48,-120.03C6376.48,-120.03 6437.4,-120.03 6437.4,-120.03"/>
<polygon fill="#555555" stroke="#555555" stroke-width="1.8" points="6437.4,-122.83 6445.4,-120.03 6437.4,-117.23 6437.4,-122.83"/>
</g>
</g>
</svg>
