<?xml version="1.0" encoding="UTF-8" standalone="no"?>
<!DOCTYPE svg PUBLIC "-//W3C//DTD SVG 1.1//EN"
 "http://www.w3.org/Graphics/SVG/1.1/DTD/svg11.dtd">
<!-- Generated by graphviz version 14.1.5 (20260411.2331)
 -->
<!-- Title: YOLO_DetectionModel Pages: 1 -->
<svg width="51443pt" height="2311pt"
 viewBox="0.00 0.00 51443.00 2311.00" xmlns="http://www.w3.org/2000/svg" xmlns:xlink="http://www.w3.org/1999/xlink">
<g id="graph0" class="graph" transform="scale(8.33333 8.33333) rotate(0) translate(4 273.27)">
<title>YOLO_DetectionModel</title>
<polygon fill="white" stroke="none" points="-4,4 -4,-273.27 6169.1,-273.27 6169.1,4 -4,4"/>
<g id="clust1" class="cluster">
<title>cluster_backbone</title>
<path fill="white" stroke="#2563eb" d="M216.55,-14.27C216.55,-14.27 2764.1,-14.27 2764.1,-14.27 2770.1,-14.27 2776.1,-20.27 2776.1,-26.27 2776.1,-26.27 2776.1,-91.28 2776.1,-91.28 2776.1,-97.28 2770.1,-103.28 2764.1,-103.28 2764.1,-103.28 216.55,-103.28 216.55,-103.28 210.55,-103.28 204.55,-97.28 204.55,-91.28 204.55,-91.28 204.55,-26.28 204.55,-26.28 204.55,-20.28 210.55,-14.27 216.55,-14.27"/>
<text xml:space="preserve" text-anchor="middle" x="1490.33" y="-82.18" font-family="Times New Roman,serif" font-size="18.00">Backbone</text>
</g>
<g id="clust2" class="cluster">
<title>cluster_neck</title>
<path fill="white" stroke="#16a34a" d="M2844.1,-14.27C2844.1,-14.27 5419.7,-14.27 5419.7,-14.27 5425.7,-14.27 5431.7,-20.27 5431.7,-26.27 5431.7,-26.27 5431.7,-129.28 5431.7,-129.28 5431.7,-135.28 5425.7,-141.28 5419.7,-141.28 5419.7,-141.28 2844.1,-141.28 2844.1,-141.28 2838.1,-141.28 2832.1,-135.28 2832.1,-129.28 2832.1,-129.28 2832.1,-26.28 2832.1,-26.28 2832.1,-20.28 2838.1,-14.27 2844.1,-14.27"/>
<text xml:space="preserve" text-anchor="middle" x="4131.9" y="-120.18" font-family="Times New Roman,serif" font-size="18.00">FPN / PAN Neck</text>
</g>
<g id="clust3" class="cluster">
<title>cluster_head</title>
<path fill="white" stroke="#dc2626" d="M5499.7,-10.27C5499.7,-10.27 6145.1,-10.27 6145.1,-10.27 6151.1,-10.27 6157.1,-16.27 6157.1,-22.27 6157.1,-22.27 6157.1,-249.27 6157.1,-249.27 6157.1,-255.27 6151.1,-261.27 6145.1,-261.27 6145.1,-261.27 5499.7,-261.27 5499.7,-261.27 5493.7,-261.27 5487.7,-255.27 5487.7,-249.27 5487.7,-249.27 5487.7,-22.28 5487.7,-22.28 5487.7,-16.28 5493.7,-10.27 5499.7,-10.27"/>
<text xml:space="preserve" text-anchor="middle" x="5822.4" y="-240.17" font-family="Times New Roman,serif" font-size="18.00">Detection Head</text>
</g>
<!-- input -->
<g id="node1" class="node">
<title>input</title>
<path fill="#f3f4f6" stroke="black" d="M128.55,-66.55C128.55,-66.55 12,-66.55 12,-66.55 6,-66.55 0,-60.55 0,-54.55 0,-54.55 0,-34 0,-34 0,-28 6,-22 12,-22 12,-22 128.55,-22 128.55,-22 134.55,-22 140.55,-28 140.55,-34 140.55,-34 140.55,-54.55 140.55,-54.55 140.55,-60.55 134.55,-66.55 128.55,-66.55"/>
<text xml:space="preserve" text-anchor="middle" x="70.27" y="-38.85" font-family="Helvetica,sans-Serif" font-size="14.00">{Input|640×640×3}</text>
</g>
<!-- b1 -->
<g id="node2" class="node">
<title>b1</title>
<path fill="#dbeafe" stroke="black" d="M363.6,-66.55C363.6,-66.55 224.55,-66.55 224.55,-66.55 218.55,-66.55 212.55,-60.55 212.55,-54.55 212.55,-54.55 212.55,-34 212.55,-34 212.55,-28 218.55,-22 224.55,-22 224.55,-22 363.6,-22 363.6,-22 369.6,-22 375.6,-28 375.6,-34 375.6,-34 375.6,-54.55 375.6,-54.55 375.6,-60.55 369.6,-66.55 363.6,-66.55"/>
<text xml:space="preserve" text-anchor="middle" x="294.07" y="-38.85" font-family="Helvetica,sans-Serif" font-size="14.00">{Conv|32 ch|320×320}</text>
</g>
<!-- input&#45;&gt;b1 -->
<g id="edge1" class="edge">
<title>input&#45;&gt;b1</title>
<path fill="none" stroke="#555555" stroke-width="2.5" d="M140.78,-44.27C140.78,-44.27 200.42,-44.27 200.42,-44.27"/>
<polygon fill="#555555" stroke="#555555" stroke-width="2.5" points="200.42,-47.08 208.42,-44.28 200.42,-41.48 200.42,-47.08"/>
</g>
<!-- b2 -->
<g id="node3" class="node">
<title>b2</title>
<path fill="#dbeafe" stroke="black" d="M598.65,-66.55C598.65,-66.55 459.6,-66.55 459.6,-66.55 453.6,-66.55 447.6,-60.55 447.6,-54.55 447.6,-54.55 447.6,-34 447.6,-34 447.6,-28 453.6,-22 459.6,-22 459.6,-22 598.65,-22 598.65,-22 604.65,-22 610.65,-28 610.65,-34 610.65,-34 610.65,-54.55 610.65,-54.55 610.65,-60.55 604.65,-66.55 598.65,-66.55"/>
<text xml:space="preserve" text-anchor="middle" x="529.12" y="-38.85" font-family="Helvetica,sans-Serif" font-size="14.00">{Conv|64 ch|160×160}</text>
</g>
<!-- b1&#45;&gt;b2 -->
<g id="edge2" class="edge">
<title>b1&#45;&gt;b2</title>
<path fill="none" stroke="#555555" stroke-width="2.5" d="M375.95,-44.27C375.95,-44.27 435.36,-44.27 435.36,-44.27"/>
<polygon fill="#555555" stroke="#555555" stroke-width="2.5" points="435.36,-47.08 443.36,-44.28 435.36,-41.48 435.36,-47.08"/>
</g>
<!-- b3 -->
<g id="node4" class="node">
<title>b3</title>
<path fill="#bfdbfe" stroke="black" d="M860.7,-66.55C860.7,-66.55 694.65,-66.55 694.65,-66.55 688.65,-66.55 682.65,-60.55 682.65,-54.55 682.65,-54.55 682.65,-34 682.65,-34 682.65,-28 688.65,-22 694.65,-22 694.65,-22 860.7,-22 860.7,-22 866.7,-22 872.7,-28 872.7,-34 872.7,-34 872.7,-54.55 872.7,-54.55 872.7,-60.55 866.7,-66.55 860.7,-66.55"/>
<text xml:space="preserve" text-anchor="middle" x="777.68" y="-38.85" font-family="Helvetica,sans-Serif" font-size="14.00">{C3k2 ×3|128 ch|160×160}</text>
</g>
<!-- b2&#45;&gt;b3 -->
<g id="edge3" class="edge">
<title>b2&#45;&gt;b3</title>
<path fill="none" stroke="#555555" stroke-width="2.5" d="M610.85,-44.27C610.85,-44.27 670.74,-44.27 670.74,-44.27"/>
<polygon fill="#555555" stroke="#555555" stroke-width="2.5" points="670.74,-47.08 678.74,-44.28 670.74,-41.48 670.74,-47.08"/>
</g>
<!-- b4 -->
<g id="node5" class="node">
<title>b4</title>
<path fill="#dbeafe" stroke="black" d="M1088.25,-66.55C1088.25,-66.55 956.7,-66.55 956.7,-66.55 950.7,-66.55 944.7,-60.55 944.7,-54.55 944.7,-54.55 944.7,-34 944.7,-34 944.7,-28 950.7,-22 956.7,-22 956.7,-22 1088.25,-22 1088.25,-22 1094.25,-22 1100.25,-28 1100.25,-34 1100.25,-34 1100.25,-54.55 1100.25,-54.55 1100.25,-60.55 1094.25,-66.55 1088.25,-66.55"/>
<text xml:space="preserve" text-anchor="middle" x="1022.48" y="-38.85" font-family="Helvetica,sans-Serif" font-size="14.00">{Conv|128 ch|80×80}</text>
</g>
<!-- b3&#45;&gt;b4 -->
<g id="edge4" class="edge">
<title>b3&#45;&gt;b4</title>
<path fill="none" stroke="#555555" stroke-width="2.5" d="M873.02,-44.27C873.02,-44.27 932.6,-44.27 932.6,-44.27"/>
<polygon fill="#555555" stroke="#555555" stroke-width="2.5" points="932.6,-47.08 940.6,-44.28 932.6,-41.48 932.6,-47.08"/>
</g>
<!-- p3 -->
<g id="node6" class="node">
<title>p3</title>
<path fill="#93c5fd" stroke="black" d="M1335.3,-66.55C1335.3,-66.55 1184.25,-66.55 1184.25,-66.55 1178.25,-66.55 1172.25,-60.55 1172.25,-54.55 1172.25,-54.55 1172.25,-34 1172.25,-34 1172.25,-28 1178.25,-22 1184.25,-22 1184.25,-22 1335.3,-22 1335.3,-22 1341.3,-22 1347.3,-28 1347.3,-34 1347.3,-34 1347.3,-54.55 1347.3,-54.55 1347.3,-60.55 1341.3,-66.55 1335.3,-66.55"/>
<text xml:space="preserve" text-anchor="middle" x="1259.78" y="-38.85" font-family="Helvetica,sans-Serif" font-size="14.00">{C3k2 ×6|256 ch|80×80}</text>
</g>
<!-- b4&#45;&gt;p3 -->
<g id="edge5" class="edge">
<title>b4&#45;&gt;p3</title>
<path fill="none" stroke="#555555" stroke-width="2.5" d="M1100.5,-44.27C1100.5,-44.27 1160.06,-44.27 1160.06,-44.27"/>
<polygon fill="#555555" stroke="#555555" stroke-width="2.5" points="1160.06,-47.08 1168.06,-44.28 1160.06,-41.48 1160.06,-47.08"/>
</g>
<!-- b6 -->
<g id="node7" class="node">
<title>b6</title>
<path fill="#dbeafe" stroke="black" d="M1562.85,-66.55C1562.85,-66.55 1431.3,-66.55 1431.3,-66.55 1425.3,-66.55 1419.3,-60.55 1419.3,-54.55 1419.3,-54.55 1419.3,-34 1419.3,-34 1419.3,-28 1425.3,-22 1431.3,-22 1431.3,-22 1562.85,-22 1562.85,-22 1568.85,-22 1574.85,-28 1574.85,-34 1574.85,-34 1574.85,-54.55 1574.85,-54.55 1574.85,-60.55 1568.85,-66.55 1562.85,-66.55"/>
<text xml:space="preserve" text-anchor="middle" x="1497.08" y="-38.85" font-family="Helvetica,sans-Serif" font-size="14.00">{Conv|256 ch|40×40}</text>
</g>
<!-- p3&#45;&gt;b6 -->
<g id="edge6" class="edge">
<title>p3&#45;&gt;b6</title>
<path fill="none" stroke="#555555" stroke-width="2.5" d="M1347.8,-44.27C1347.8,-44.27 1407.19,-44.27 1407.19,-44.27"/>
<polygon fill="#555555" stroke="#555555" stroke-width="2.5" points="1407.19,-47.08 1415.19,-44.28 1407.19,-41.48 1407.19,-47.08"/>
</g>
<!-- cat2 -->
<g id="node17" class="node">
<title>cat2</title>
<path fill="#bbf7d0" stroke="black" d="M3803.85,-104.55C3803.85,-104.55 3703.05,-104.55 3703.05,-104.55 3697.05,-104.55 3691.05,-98.55 3691.05,-92.55 3691.05,-92.55 3691.05,-72 3691.05,-72 3691.05,-66 3697.05,-60 3703.05,-60 3703.05,-60 3803.85,-60 3803.85,-60 3809.85,-60 3815.85,-66 3815.85,-72 3815.85,-72 3815.85,-92.55 3815.85,-92.55 3815.85,-98.55 3809.85,-104.55 3803.85,-104.55"/>
<text xml:space="preserve" text-anchor="middle" x="3753.45" y="-76.85" font-family="Helvetica,sans-Serif" font-size="14.00">{Concat|512 ch}</text>
</g>
<!-- p3&#45;&gt;cat2 -->
<g id="edge18" class="edge">
<title>p3&#45;&gt;cat2</title>
<path fill="none" stroke="#555555" stroke-width="2.5" d="M1260.1,-66.92C1260.1,-90.51 1260.1,-124.05 1260.1,-124.05 1260.1,-124.05 3753.1,-124.05 3753.1,-124.05 3753.1,-124.05 3753.1,-116.41 3753.1,-116.41"/>
<polygon fill="#555555" stroke="#555555" stroke-width="2.5" points="3755.9,-116.41 3753.1,-108.41 3750.3,-116.41 3755.9,-116.41"/>
</g>
<!-- p4 -->
<g id="node8" class="node">
<title>p4</title>
<path fill="#60a5fa" stroke="black" d="M1809.9,-66.55C1809.9,-66.55 1658.85,-66.55 1658.85,-66.55 1652.85,-66.55 1646.85,-60.55 1646.85,-54.55 1646.85,-54.55 1646.85,-34 1646.85,-34 1646.85,-28 1652.85,-22 1658.85,-22 1658.85,-22 1809.9,-22 1809.9,-22 1815.9,-22 1821.9,-28 1821.9,-34 1821.9,-34 1821.9,-54.55 1821.9,-54.55 1821.9,-60.55 1815.9,-66.55 1809.9,-66.55"/>
<text xml:space="preserve" text-anchor="middle" x="1734.38" y="-38.85" font-family="Helvetica,sans-Serif" font-size="14.00">{C3k2 ×8|256 ch|40×40}</text>
</g>
<!-- b6&#45;&gt;p4 -->
<g id="edge7" class="edge">
<title>b6&#45;&gt;p4</title>
<path fill="none" stroke="#555555" stroke-width="2.5" d="M1575.1,-44.27C1575.1,-44.27 1634.66,-44.27 1634.66,-44.27"/>
<polygon fill="#555555" stroke="#555555" stroke-width="2.5" points="1634.66,-47.08 1642.66,-44.28 1634.66,-41.48 1634.66,-47.08"/>
</g>
<!-- b8 -->
<g id="node9" class="node">
<title>b8</title>
<path fill="#dbeafe" stroke="black" d="M2037.45,-66.55C2037.45,-66.55 1905.9,-66.55 1905.9,-66.55 1899.9,-66.55 1893.9,-60.55 1893.9,-54.55 1893.9,-54.55 1893.9,-34 1893.9,-34 1893.9,-28 1899.9,-22 1905.9,-22 1905.9,-22 2037.45,-22 2037.45,-22 2043.45,-22 2049.45,-28 2049.45,-34 2049.45,-34 2049.45,-54.55 2049.45,-54.55 2049.45,-60.55 2043.45,-66.55 2037.45,-66.55"/>
<text xml:space="preserve" text-anchor="middle" x="1971.68" y="-38.85" font-family="Helvetica,sans-Serif" font-size="14.00">{Conv|512 ch|20×20}</text>
</g>
<!-- p4&#45;&gt;b8 -->
<g id="edge8" class="edge">
<title>p4&#45;&gt;b8</title>
<path fill="none" stroke="#555555" stroke-width="2.5" d="M1822.4,-44.27C1822.4,-44.27 1881.79,-44.27 1881.79,-44.27"/>
<polygon fill="#555555" stroke="#555555" stroke-width="2.5" points="1881.79,-47.08 1889.79,-44.28 1881.79,-41.48 1881.79,-47.08"/>
</g>
<!-- cat1 -->
<g id="node14" class="node">
<title>cat1</title>
<path fill="#bbf7d0" stroke="black" d="M3166.2,-85.55C3166.2,-85.55 3065.4,-85.55 3065.4,-85.55 3059.4,-85.55 3053.4,-79.55 3053.4,-73.55 3053.4,-73.55 3053.4,-53 3053.4,-53 3053.4,-47 3059.4,-41 3065.4,-41 3065.4,-41 3166.2,-41 3166.2,-41 3172.2,-41 3178.2,-47 3178.2,-53 3178.2,-53 3178.2,-73.55 3178.2,-73.55 3178.2,-79.55 3172.2,-85.55 3166.2,-85.55"/>
<text xml:space="preserve" text-anchor="middle" x="3115.8" y="-57.85" font-family="Helvetica,sans-Serif" font-size="14.00">{Concat|768 ch}</text>
</g>
<!-- p4&#45;&gt;cat1 -->
<g id="edge14" class="edge">
<title>p4&#45;&gt;cat1</title>
<path fill="none" stroke="#555555" stroke-width="2.5" d="M1734.1,-67.03C1734.1,-72.12 1734.1,-76.05 1734.1,-76.05 1734.1,-76.05 3041.51,-76.05 3041.51,-76.05"/>
<polygon fill="#555555" stroke="#555555" stroke-width="2.5" points="3041.51,-78.85 3049.51,-76.05 3041.51,-73.25 3041.51,-78.85"/>
</g>
<!-- p5 -->
<g id="node10" class="node">
<title>p5</title>
<path fill="#3b82f6" stroke="black" d="M2284.5,-66.55C2284.5,-66.55 2133.45,-66.55 2133.45,-66.55 2127.45,-66.55 2121.45,-60.55 2121.45,-54.55 2121.45,-54.55 2121.45,-34 2121.45,-34 2121.45,-28 2127.45,-22 2133.45,-22 2133.45,-22 2284.5,-22 2284.5,-22 2290.5,-22 2296.5,-28 2296.5,-34 2296.5,-34 2296.5,-54.55 2296.5,-54.55 2296.5,-60.55 2290.5,-66.55 2284.5,-66.55"/>
<text xml:space="preserve" text-anchor="middle" x="2208.98" y="-38.85" font-family="Helvetica,sans-Serif" font-size="14.00" fill="white">{C3k2 ×8|512 ch|20×20}</text>
</g>
<!-- b8&#45;&gt;p5 -->
<g id="edge9" class="edge">
<title>b8&#45;&gt;p5</title>
<path fill="none" stroke="#555555" stroke-width="2.5" d="M2049.7,-44.27C2049.7,-44.27 2109.26,-44.27 2109.26,-44.27"/>
<polygon fill="#555555" stroke="#555555" stroke-width="2.5" points="2109.26,-47.08 2117.26,-44.28 2109.26,-41.48 2109.26,-47.08"/>
</g>
<!-- sppf -->
<g id="node11" class="node">
<title>sppf</title>
<path fill="#2563eb" stroke="black" d="M2515.8,-66.55C2515.8,-66.55 2380.5,-66.55 2380.5,-66.55 2374.5,-66.55 2368.5,-60.55 2368.5,-54.55 2368.5,-54.55 2368.5,-34 2368.5,-34 2368.5,-28 2374.5,-22 2380.5,-22 2380.5,-22 2515.8,-22 2515.8,-22 2521.8,-22 2527.8,-28 2527.8,-34 2527.8,-34 2527.8,-54.55 2527.8,-54.55 2527.8,-60.55 2521.8,-66.55 2515.8,-66.55"/>
<text xml:space="preserve" text-anchor="middle" x="2448.15" y="-38.85" font-family="Helvetica,sans-Serif" font-size="14.00" fill="white">{SPPF|512 ch|20×20}</text>
</g>
<!-- p5&#45;&gt;sppf -->
<g id="edge10" class="edge">
<title>p5&#45;&gt;sppf</title>
<path fill="none" stroke="#555555" stroke-width="2.5" d="M2296.68,-44.27C2296.68,-44.27 2356.6,-44.27 2356.6,-44.27"/>
<polygon fill="#555555" stroke="#555555" stroke-width="2.5" points="2356.6,-47.08 2364.6,-44.28 2356.6,-41.48 2356.6,-47.08"/>
</g>
<!-- psa -->
<g id="node12" class="node">
<title>psa</title>
<path fill="#1d4ed8" stroke="black" d="M2756.1,-66.55C2756.1,-66.55 2611.8,-66.55 2611.8,-66.55 2605.8,-66.55 2599.8,-60.55 2599.8,-54.55 2599.8,-54.55 2599.8,-34 2599.8,-34 2599.8,-28 2605.8,-22 2611.8,-22 2611.8,-22 2756.1,-22 2756.1,-22 2762.1,-22 2768.1,-28 2768.1,-34 2768.1,-34 2768.1,-54.55 2768.1,-54.55 2768.1,-60.55 2762.1,-66.55 2756.1,-66.55"/>
<text xml:space="preserve" text-anchor="middle" x="2683.95" y="-38.85" font-family="Helvetica,sans-Serif" font-size="14.00" fill="white">{C2PSA|512 ch|20×20}</text>
</g>
<!-- sppf&#45;&gt;psa -->
<g id="edge11" class="edge">
<title>sppf&#45;&gt;psa</title>
<path fill="none" stroke="#555555" stroke-width="2.5" d="M2527.98,-44.27C2527.98,-44.27 2587.58,-44.27 2587.58,-44.27"/>
<polygon fill="#555555" stroke="#555555" stroke-width="2.5" points="2587.58,-47.08 2595.58,-44.28 2587.58,-41.48 2587.58,-47.08"/>
</g>
<!-- up1 -->
<g id="node13" class="node">
<title>up1</title>
<path fill="#dcfce7" stroke="black" d="M2969.4,-66.55C2969.4,-66.55 2852.1,-66.55 2852.1,-66.55 2846.1,-66.55 2840.1,-60.55 2840.1,-54.55 2840.1,-54.55 2840.1,-34 2840.1,-34 2840.1,-28 2846.1,-22 2852.1,-22 2852.1,-22 2969.4,-22 2969.4,-22 2975.4,-22 2981.4,-28 2981.4,-34 2981.4,-34 2981.4,-54.55 2981.4,-54.55 2981.4,-60.55 2975.4,-66.55 2969.4,-66.55"/>
<text xml:space="preserve" text-anchor="middle" x="2910.75" y="-38.85" font-family="Helvetica,sans-Serif" font-size="14.00">{Upsample|40×40}</text>
</g>
<!-- psa&#45;&gt;up1 -->
<g id="edge12" class="edge">
<title>psa&#45;&gt;up1</title>
<path fill="none" stroke="#555555" stroke-width="2.5" d="M2768.4,-44.27C2768.4,-44.27 2827.82,-44.27 2827.82,-44.27"/>
<polygon fill="#555555" stroke="#555555" stroke-width="2.5" points="2827.82,-47.08 2835.82,-44.28 2827.82,-41.48 2827.82,-47.08"/>
</g>
<!-- cat4 -->
<g id="node23" class="node">
<title>cat4</title>
<path fill="#bbf7d0" stroke="black" d="M5184.15,-66.55C5184.15,-66.55 5083.35,-66.55 5083.35,-66.55 5077.35,-66.55 5071.35,-60.55 5071.35,-54.55 5071.35,-54.55 5071.35,-34 5071.35,-34 5071.35,-28 5077.35,-22 5083.35,-22 5083.35,-22 5184.15,-22 5184.15,-22 5190.15,-22 5196.15,-28 5196.15,-34 5196.15,-34 5196.15,-54.55 5196.15,-54.55 5196.15,-60.55 5190.15,-66.55 5184.15,-66.55"/>
<text xml:space="preserve" text-anchor="middle" x="5133.75" y="-38.85" font-family="Helvetica,sans-Serif" font-size="14.00">{Concat|768 ch}</text>
</g>
<!-- psa&#45;&gt;cat4 -->
<g id="edge26" class="edge">
<title>psa&#45;&gt;cat4</title>
<path fill="none" stroke="#555555" stroke-width="2.5" d="M2684.1,-21.62C2684.1,-10.73 2684.1,0 2684.1,0 2684.1,0 5134.1,0 5134.1,0 5134.1,0 5134.1,-9.83 5134.1,-9.83"/>
<polygon fill="#555555" stroke="#555555" stroke-width="2.5" points="5131.3,-9.83 5134.1,-17.83 5136.9,-9.83 5131.3,-9.83"/>
</g>
<!-- up1&#45;&gt;cat1 -->
<g id="edge13" class="edge">
<title>up1&#45;&gt;cat1</title>
<path fill="none" stroke="#555555" stroke-width="2.5" d="M2981.89,-53.77C2981.89,-53.77 3041.21,-53.77 3041.21,-53.77"/>
<polygon fill="#555555" stroke="#555555" stroke-width="2.5" points="3041.21,-56.58 3049.21,-53.78 3041.21,-50.98 3041.21,-56.58"/>
</g>
<!-- n1 -->
<g id="node15" class="node">
<title>n1</title>
<path fill="#86efac" stroke="black" d="M3393.75,-85.55C3393.75,-85.55 3262.2,-85.55 3262.2,-85.55 3256.2,-85.55 3250.2,-79.55 3250.2,-73.55 3250.2,-73.55 3250.2,-53 3250.2,-53 3250.2,-47 3256.2,-41 3262.2,-41 3262.2,-41 3393.75,-41 3393.75,-41 3399.75,-41 3405.75,-47 3405.75,-53 3405.75,-53 3405.75,-73.55 3405.75,-73.55 3405.75,-79.55 3399.75,-85.55 3393.75,-85.55"/>
<text xml:space="preserve" text-anchor="middle" x="3327.98" y="-57.85" font-family="Helvetica,sans-Serif" font-size="14.00">{C3k2|256 ch|40×40}</text>
</g>
<!-- cat1&#45;&gt;n1 -->
<g id="edge15" class="edge">
<title>cat1&#45;&gt;n1</title>
<path fill="none" stroke="#555555" stroke-width="2.5" d="M3178.6,-63.27C3178.6,-63.27 3238.12,-63.27 3238.12,-63.27"/>
<polygon fill="#555555" stroke="#555555" stroke-width="2.5" points="3238.12,-66.08 3246.12,-63.28 3238.12,-60.48 3238.12,-66.08"/>
</g>
<!-- up2 -->
<g id="node16" class="node">
<title>up2</title>
<path fill="#dcfce7" stroke="black" d="M3607.05,-104.55C3607.05,-104.55 3489.75,-104.55 3489.75,-104.55 3483.75,-104.55 3477.75,-98.55 3477.75,-92.55 3477.75,-92.55 3477.75,-72 3477.75,-72 3477.75,-66 3483.75,-60 3489.75,-60 3489.75,-60 3607.05,-60 3607.05,-60 3613.05,-60 3619.05,-66 3619.05,-72 3619.05,-72 3619.05,-92.55 3619.05,-92.55 3619.05,-98.55 3613.05,-104.55 3607.05,-104.55"/>
<text xml:space="preserve" text-anchor="middle" x="3548.4" y="-76.85" font-family="Helvetica,sans-Serif" font-size="14.00">{Upsample|80×80}</text>
</g>
<!-- n1&#45;&gt;up2 -->
<g id="edge16" class="edge">
<title>n1&#45;&gt;up2</title>
<path fill="none" stroke="#555555" stroke-width="2.5" d="M3406,-72.78C3406,-72.78 3465.69,-72.78 3465.69,-72.78"/>
<polygon fill="#555555" stroke="#555555" stroke-width="2.5" points="3465.69,-75.58 3473.69,-72.78 3465.69,-69.98 3465.69,-75.58"/>
</g>
<!-- cat3 -->
<g id="node20" class="node">
<title>cat3</title>
<path fill="#bbf7d0" stroke="black" d="M4494,-85.55C4494,-85.55 4393.2,-85.55 4393.2,-85.55 4387.2,-85.55 4381.2,-79.55 4381.2,-73.55 4381.2,-73.55 4381.2,-53 4381.2,-53 4381.2,-47 4387.2,-41 4393.2,-41 4393.2,-41 4494,-41 4494,-41 4500,-41 4506,-47 4506,-53 4506,-53 4506,-73.55 4506,-73.55 4506,-79.55 4500,-85.55 4494,-85.55"/>
<text xml:space="preserve" text-anchor="middle" x="4443.6" y="-57.85" font-family="Helvetica,sans-Serif" font-size="14.00">{Concat|384 ch}</text>
</g>
<!-- n1&#45;&gt;cat3 -->
<g id="edge22" class="edge">
<title>n1&#45;&gt;cat3</title>
<path fill="none" stroke="#555555" stroke-width="2.5" d="M3405.98,-50.5C3405.98,-50.5 4369,-50.5 4369,-50.5"/>
<polygon fill="#555555" stroke="#555555" stroke-width="2.5" points="4369,-53.3 4377,-50.5 4369,-47.7 4369,-53.3"/>
</g>
<!-- up2&#45;&gt;cat2 -->
<g id="edge17" class="edge">
<title>up2&#45;&gt;cat2</title>
<path fill="none" stroke="#555555" stroke-width="2.5" d="M3619.54,-82.28C3619.54,-82.28 3678.86,-82.28 3678.86,-82.28"/>
<polygon fill="#555555" stroke="#555555" stroke-width="2.5" points="3678.86,-85.08 3686.86,-82.28 3678.86,-79.48 3678.86,-85.08"/>
</g>
<!-- n2 -->
<g id="node18" class="node">
<title>n2</title>
<path fill="#4ade80" stroke="black" d="M4031.4,-104.55C4031.4,-104.55 3899.85,-104.55 3899.85,-104.55 3893.85,-104.55 3887.85,-98.55 3887.85,-92.55 3887.85,-92.55 3887.85,-72 3887.85,-72 3887.85,-66 3893.85,-60 3899.85,-60 3899.85,-60 4031.4,-60 4031.4,-60 4037.4,-60 4043.4,-66 4043.4,-72 4043.4,-72 4043.4,-92.55 4043.4,-92.55 4043.4,-98.55 4037.4,-104.55 4031.4,-104.55"/>
<text xml:space="preserve" text-anchor="middle" x="3965.63" y="-76.85" font-family="Helvetica,sans-Serif" font-size="14.00">{C3k2|128 ch|80×80}</text>
</g>
<!-- cat2&#45;&gt;n2 -->
<g id="edge19" class="edge">
<title>cat2&#45;&gt;n2</title>
<path fill="none" stroke="#555555" stroke-width="2.5" d="M3816.25,-82.28C3816.25,-82.28 3875.77,-82.28 3875.77,-82.28"/>
<polygon fill="#555555" stroke="#555555" stroke-width="2.5" points="3875.77,-85.08 3883.77,-82.28 3875.77,-79.48 3875.77,-85.08"/>
</g>
<!-- down1 -->
<g id="node19" class="node">
<title>down1</title>
<path fill="#dcfce7" stroke="black" d="M4297.2,-104.55C4297.2,-104.55 4127.4,-104.55 4127.4,-104.55 4121.4,-104.55 4115.4,-98.55 4115.4,-92.55 4115.4,-92.55 4115.4,-72 4115.4,-72 4115.4,-66 4121.4,-60 4127.4,-60 4127.4,-60 4297.2,-60 4297.2,-60 4303.2,-60 4309.2,-66 4309.2,-72 4309.2,-72 4309.2,-92.55 4309.2,-92.55 4309.2,-98.55 4303.2,-104.55 4297.2,-104.55"/>
<text xml:space="preserve" text-anchor="middle" x="4212.3" y="-76.85" font-family="Helvetica,sans-Serif" font-size="14.00">{Downsample Conv|40×40}</text>
</g>
<!-- n2&#45;&gt;down1 -->
<g id="edge20" class="edge">
<title>n2&#45;&gt;down1</title>
<path fill="none" stroke="#555555" stroke-width="2.5" d="M4043.67,-82.28C4043.67,-82.28 4103.47,-82.28 4103.47,-82.28"/>
<polygon fill="#555555" stroke="#555555" stroke-width="2.5" points="4103.47,-85.08 4111.47,-82.28 4103.47,-79.48 4103.47,-85.08"/>
</g>
<!-- d1 -->
<g id="node25" class="node">
<title>d1</title>
<path fill="#fecaca" stroke="black" d="M5622.75,-224.55C5622.75,-224.55 5507.7,-224.55 5507.7,-224.55 5501.7,-224.55 5495.7,-218.55 5495.7,-212.55 5495.7,-212.55 5495.7,-192 5495.7,-192 5495.7,-186 5501.7,-180 5507.7,-180 5507.7,-180 5622.75,-180 5622.75,-180 5628.75,-180 5634.75,-186 5634.75,-192 5634.75,-192 5634.75,-212.55 5634.75,-212.55 5634.75,-218.55 5628.75,-224.55 5622.75,-224.55"/>
<text xml:space="preserve" text-anchor="middle" x="5565.23" y="-196.85" font-family="Helvetica,sans-Serif" font-size="14.00">{Detect P3|80×80}</text>
</g>
<!-- n2&#45;&gt;d1 -->
<g id="edge28" class="edge">
<title>n2&#45;&gt;d1</title>
<path fill="none" stroke="#555555" stroke-width="2.5" d="M3966.1,-104.85C3966.1,-139.61 3966.1,-202.28 3966.1,-202.28 3966.1,-202.28 5483.44,-202.28 5483.44,-202.28"/>
<polygon fill="#555555" stroke="#555555" stroke-width="2.5" points="5483.44,-205.08 5491.44,-202.28 5483.44,-199.48 5483.44,-205.08"/>
</g>
<!-- down1&#45;&gt;cat3 -->
<g id="edge21" class="edge">
<title>down1&#45;&gt;cat3</title>
<path fill="none" stroke="#555555" stroke-width="2.5" d="M4309.39,-72.78C4309.39,-72.78 4369.24,-72.78 4369.24,-72.78"/>
<polygon fill="#555555" stroke="#555555" stroke-width="2.5" points="4369.24,-75.58 4377.24,-72.78 4369.24,-69.98 4369.24,-75.58"/>
</g>
<!-- n3 -->
<g id="node21" class="node">
<title>n3</title>
<path fill="#22c55e" stroke="black" d="M4721.55,-85.55C4721.55,-85.55 4590,-85.55 4590,-85.55 4584,-85.55 4578,-79.55 4578,-73.55 4578,-73.55 4578,-53 4578,-53 4578,-47 4584,-41 4590,-41 4590,-41 4721.55,-41 4721.55,-41 4727.55,-41 4733.55,-47 4733.55,-53 4733.55,-53 4733.55,-73.55 4733.55,-73.55 4733.55,-79.55 4727.55,-85.55 4721.55,-85.55"/>
<text xml:space="preserve" text-anchor="middle" x="4655.78" y="-57.85" font-family="Helvetica,sans-Serif" font-size="14.00">{C3k2|256 ch|40×40}</text>
</g>
<!-- cat3&#45;&gt;n3 -->
<g id="edge23" class="edge">
<title>cat3&#45;&gt;n3</title>
<path fill="none" stroke="#555555" stroke-width="2.5" d="M4506.4,-63.27C4506.4,-63.27 4565.92,-63.27 4565.92,-63.27"/>
<polygon fill="#555555" stroke="#555555" stroke-width="2.5" points="4565.92,-66.08 4573.92,-63.28 4565.92,-60.48 4565.92,-66.08"/>
</g>
<!-- down2 -->
<g id="node22" class="node">
<title>down2</title>
<path fill="#dcfce7" stroke="black" d="M4987.35,-66.55C4987.35,-66.55 4817.55,-66.55 4817.55,-66.55 4811.55,-66.55 4805.55,-60.55 4805.55,-54.55 4805.55,-54.55 4805.55,-34 4805.55,-34 4805.55,-28 4811.55,-22 4817.55,-22 4817.55,-22 4987.35,-22 4987.35,-22 4993.35,-22 4999.35,-28 4999.35,-34 4999.35,-34 4999.35,-54.55 4999.35,-54.55 4999.35,-60.55 4993.35,-66.55 4987.35,-66.55"/>
<text xml:space="preserve" text-anchor="middle" x="4902.45" y="-38.85" font-family="Helvetica,sans-Serif" font-size="14.00">{Downsample Conv|20×20}</text>
</g>
<!-- n3&#45;&gt;down2 -->
<g id="edge24" class="edge">
<title>n3&#45;&gt;down2</title>
<path fill="none" stroke="#555555" stroke-width="2.5" d="M4733.82,-53.77C4733.82,-53.77 4793.62,-53.77 4793.62,-53.77"/>
<polygon fill="#555555" stroke="#555555" stroke-width="2.5" points="4793.62,-56.58 4801.62,-53.78 4793.62,-50.98 4793.62,-56.58"/>
</g>
<!-- d2 -->
<g id="node26" class="node">
<title>d2</title>
<path fill="#fca5a5" stroke="black" d="M5622.75,-143.55C5622.75,-143.55 5507.7,-143.55 5507.7,-143.55 5501.7,-143.55 5495.7,-137.55 5495.7,-131.55 5495.7,-131.55 5495.7,-111 5495.7,-111 5495.7,-105 5501.7,-99 5507.7,-99 5507.7,-99 5622.75,-99 5622.75,-99 5628.75,-99 5634.75,-105 5634.75,-111 5634.75,-111 5634.75,-131.55 5634.75,-131.55 5634.75,-137.55 5628.75,-143.55 5622.75,-143.55"/>
<text xml:space="preserve" text-anchor="middle" x="5565.23" y="-115.85" font-family="Helvetica,sans-Serif" font-size="14.00">{Detect P4|40×40}</text>
</g>
<!-- n3&#45;&gt;d2 -->
<g id="edge29" class="edge">
<title>n3&#45;&gt;d2</title>
<path fill="none" stroke="#555555" stroke-width="2.5" d="M4733.7,-76.05C4953.93,-76.05 5565.1,-76.05 5565.1,-76.05 5565.1,-76.05 5565.1,-86.88 5565.1,-86.88"/>
<polygon fill="#555555" stroke="#555555" stroke-width="2.5" points="5562.3,-86.88 5565.1,-94.88 5567.9,-86.88 5562.3,-86.88"/>
</g>
<!-- down2&#45;&gt;cat4 -->
<g id="edge25" class="edge">
<title>down2&#45;&gt;cat4</title>
<path fill="none" stroke="#555555" stroke-width="2.5" d="M4999.54,-44.27C4999.54,-44.27 5059.39,-44.27 5059.39,-44.27"/>
<polygon fill="#555555" stroke="#555555" stroke-width="2.5" points="5059.39,-47.08 5067.39,-44.28 5059.39,-41.48 5059.39,-47.08"/>
</g>
<!-- n4 -->
<g id="node24" class="node">
<title>n4</title>
<path fill="#16a34a" stroke="black" d="M5411.7,-66.55C5411.7,-66.55 5280.15,-66.55 5280.15,-66.55 5274.15,-66.55 5268.15,-60.55 5268.15,-54.55 5268.15,-54.55 5268.15,-34 5268.15,-34 5268.15,-28 5274.15,-22 5280.15,-22 5280.15,-22 5411.7,-22 5411.7,-22 5417.7,-22 5423.7,-28 5423.7,-34 5423.7,-34 5423.7,-54.55 5423.7,-54.55 5423.7,-60.55 5417.7,-66.55 5411.7,-66.55"/>
<text xml:space="preserve" text-anchor="middle" x="5345.93" y="-38.85" font-family="Helvetica,sans-Serif" font-size="14.00" fill="white">{C3k2|512 ch|20×20}</text>
</g>
<!-- cat4&#45;&gt;n4 -->
<g id="edge27" class="edge">
<title>cat4&#45;&gt;n4</title>
<path fill="none" stroke="#555555" stroke-width="2.5" d="M5196.55,-44.27C5196.55,-44.27 5256.07,-44.27 5256.07,-44.27"/>
<polygon fill="#555555" stroke="#555555" stroke-width="2.5" points="5256.07,-47.08 5264.07,-44.28 5256.07,-41.48 5256.07,-47.08"/>
</g>
<!-- d3 -->
<g id="node27" class="node">
<title>d3</title>
<path fill="#f87171" stroke="black" d="M5622.75,-62.55C5622.75,-62.55 5507.7,-62.55 5507.7,-62.55 5501.7,-62.55 5495.7,-56.55 5495.7,-50.55 5495.7,-50.55 5495.7,-30 5495.7,-30 5495.7,-24 5501.7,-18 5507.7,-18 5507.7,-18 5622.75,-18 5622.75,-18 5628.75,-18 5634.75,-24 5634.75,-30 5634.75,-30 5634.75,-50.55 5634.75,-50.55 5634.75,-56.55 5628.75,-62.55 5622.75,-62.55"/>
<text xml:space="preserve" text-anchor="middle" x="5565.23" y="-34.85" font-family="Helvetica,sans-Serif" font-size="14.00">{Detect P5|20×20}</text>
</g>
<!-- n4&#45;&gt;d3 -->
<g id="edge30" class="edge">
<title>n4&#45;&gt;d3</title>
<path fill="none" stroke="#555555" stroke-width="2.5" d="M5424.17,-42.27C5424.17,-42.27 5483.61,-42.27 5483.61,-42.27"/>
<polygon fill="#555555" stroke="#555555" stroke-width="2.5" points="5483.61,-45.08 5491.61,-42.28 5483.61,-39.48 5483.61,-45.08"/>
</g>
<!-- dfl -->
<g id="node28" class="node">
<title>dfl</title>
<path fill="#ef4444" stroke="black" d="M5898.3,-143.55C5898.3,-143.55 5718.75,-143.55 5718.75,-143.55 5712.75,-143.55 5706.75,-137.55 5706.75,-131.55 5706.75,-131.55 5706.75,-111 5706.75,-111 5706.75,-105 5712.75,-99 5718.75,-99 5718.75,-99 5898.3,-99 5898.3,-99 5904.3,-99 5910.3,-105 5910.3,-111 5910.3,-111 5910.3,-131.55 5910.3,-131.55 5910.3,-137.55 5904.3,-143.55 5898.3,-143.55"/>
<text xml:space="preserve" text-anchor="middle" x="5808.53" y="-115.85" font-family="Helvetica,sans-Serif" font-size="14.00" fill="white">{DFL|Distribution Focal Loss}</text>
</g>
<!-- d1&#45;&gt;dfl -->
<g id="edge31" class="edge">
<title>d1&#45;&gt;dfl</title>
<path fill="none" stroke="#555555" stroke-width="2.5" d="M5635.15,-202.28C5706.9,-202.28 5808.1,-202.28 5808.1,-202.28 5808.1,-202.28 5808.1,-155.62 5808.1,-155.62"/>
<polygon fill="#555555" stroke="#555555" stroke-width="2.5" points="5810.9,-155.62 5808.1,-147.62 5805.3,-155.62 5810.9,-155.62"/>
</g>
<!-- d2&#45;&gt;dfl -->
<g id="edge32" class="edge">
<title>d2&#45;&gt;dfl</title>
<path fill="none" stroke="#555555" stroke-width="2.5" d="M5634.95,-121.28C5634.95,-121.28 5694.82,-121.28 5694.82,-121.28"/>
<polygon fill="#555555" stroke="#555555" stroke-width="2.5" points="5694.82,-124.08 5702.82,-121.28 5694.82,-118.48 5694.82,-124.08"/>
</g>
<!-- d3&#45;&gt;dfl -->
<g id="edge33" class="edge">
<title>d3&#45;&gt;dfl</title>
<path fill="none" stroke="#555555" stroke-width="2.5" d="M5635.15,-40.27C5706.9,-40.27 5808.1,-40.27 5808.1,-40.27 5808.1,-40.27 5808.1,-86.93 5808.1,-86.93"/>
<polygon fill="#555555" stroke="#555555" stroke-width="2.5" points="5805.3,-86.93 5808.1,-94.93 5810.9,-86.93 5805.3,-86.93"/>
</g>
<!-- output -->
<g id="node29" class="node">
<title>output</title>
<path fill="#b91c1c" stroke="black" d="M6137.1,-143.55C6137.1,-143.55 5994.3,-143.55 5994.3,-143.55 5988.3,-143.55 5982.3,-137.55 5982.3,-131.55 5982.3,-131.55 5982.3,-111 5982.3,-111 5982.3,-105 5988.3,-99 5994.3,-99 5994.3,-99 6137.1,-99 6137.1,-99 6143.1,-99 6149.1,-105 6149.1,-111 6149.1,-111 6149.1,-131.55 6149.1,-131.55 6149.1,-137.55 6143.1,-143.55 6137.1,-143.55"/>
<text xml:space="preserve" text-anchor="middle" x="6065.7" y="-115.85" font-family="Helvetica,sans-Serif" font-size="14.00" fill="white">{Output|1 × 84 × 8400}</text>
</g>
<!-- dfl&#45;&gt;output -->
<g id="edge34" class="edge">
<title>dfl&#45;&gt;output</title>
<path fill="none" stroke="#555555" stroke-width="2.5" d="M5910.54,-121.28C5910.54,-121.28 5970.22,-121.28 5970.22,-121.28"/>
<polygon fill="#555555" stroke="#555555" stroke-width="2.5" points="5970.22,-124.08 5978.22,-121.28 5970.22,-118.48 5970.22,-124.08"/>
</g>
</g>
</svg>
